<?xml version="1.0" standalone="no"?>
<!DOCTYPE svg PUBLIC "-//W3C//DTD SVG 20010904//EN"
 "http://www.w3.org/TR/2001/REC-SVG-20010904/DTD/svg10.dtd">
<svg version="1.0" xmlns="http://www.w3.org/2000/svg"
 width="1870.000000pt" height="973.000000pt" viewBox="0 0 1870.000000 973.000000"
 preserveAspectRatio="xMidYMid meet">

<g transform="translate(0.000000,973.000000) scale(0.100000,-0.100000)"
fill="#000000" stroke="none">
<path d="M9990 9640 l0 -90 -310 0 -310 0 0 -480 0 -480 -1340 0 -1340 0 0
-475 0 -475 1825 0 1825 0 0 -480 0 -480 -1200 0 -1200 0 0 -480 0 -480 -975
0 -975 0 0 -485 0 -485 165 0 165 0 0 -480 0 -480 530 0 530 0 0 -475 0 -475
-500 0 -500 0 0 -955 0 -955 175 0 175 0 0 -465 0 -465 5985 0 5985 0 0 4865
0 4865 -4355 0 -4355 0 0 -90z m8195 9 c22 -6 46 -18 53 -27 6 -9 12 -12 12
-7 0 4 9 0 20 -10 11 -10 17 -21 15 -25 -3 -4 1 -10 9 -13 23 -9 38 -91 25
-143 -7 -25 -18 -48 -25 -51 -8 -3 -12 -9 -9 -13 2 -4 -4 -15 -15 -25 -11 -10
-20 -14 -20 -10 0 5 -6 2 -12 -7 -26 -34 -87 -38 -548 -38 -461 0 -522 4 -547
38 -7 9 -13 12 -13 7 0 -4 -9 0 -20 10 -11 10 -17 21 -15 25 3 4 -1 10 -9 13
-23 9 -38 91 -25 143 7 25 18 48 25 51 8 3 12 9 9 13 -2 4 4 15 15 25 11 10
20 14 20 10 0 -5 6 -1 13 7 6 9 28 21 47 26 50 14 944 15 995 1z m-4895 -134
c0 -20 5 -25 25 -25 20 0 25 5 25 25 0 16 6 25 15 25 12 0 15 -14 15 -65 0
-51 -3 -65 -15 -65 -9 0 -15 9 -15 25 0 20 -5 25 -25 25 -20 0 -25 -5 -25 -25
0 -16 -6 -25 -15 -25 -12 0 -15 14 -15 65 0 51 3 65 15 65 9 0 15 -9 15 -25z
m1250 10 c0 -9 9 -15 24 -15 31 0 48 -22 44 -57 -3 -25 -7 -28 -45 -31 l-43
-3 0 60 c0 34 4 61 10 61 6 0 10 -7 10 -15z m1362 -13 c11 -13 9 -14 -24 -8
-30 5 -39 3 -47 -12 -7 -14 -6 -24 3 -38 13 -16 17 -17 40 -5 30 17 45 9 26
-14 -16 -20 -64 -19 -85 1 -10 10 -15 29 -13 48 5 50 67 68 100 28z m-1414
-34 c19 -51 14 -74 -11 -49 -14 14 -47 15 -47 1 0 -5 -7 -10 -16 -10 -16 0
-14 14 12 78 19 47 40 40 62 -20z m380 35 c12 -12 13 -18 4 -21 -14 -4 -16
-38 -2 -47 17 -10 11 -27 -7 -23 -25 5 -40 108 -16 108 2 0 12 -8 21 -17z
m1300 0 c12 -12 13 -18 4 -21 -14 -4 -16 -52 -2 -52 6 0 10 -4 10 -10 0 -5 -9
-10 -20 -10 -16 0 -20 7 -20 35 0 19 -5 35 -10 35 -6 0 -5 8 2 20 15 24 15 24
36 3z m270 0 c12 -12 13 -18 4 -21 -14 -4 -16 -52 -2 -52 6 0 10 -5 10 -11 0
-6 -10 -9 -22 -7 -18 2 -24 12 -29 43 -10 63 5 82 39 48z m-2960 -15 c7 -7 12
-24 12 -38 0 -34 -17 -50 -52 -50 -18 0 -33 8 -44 25 -15 23 -15 27 0 50 18
27 63 34 84 13z m190 -40 c2 -37 0 -48 -12 -48 -10 0 -16 12 -18 38 -2 20 -7
37 -13 37 -5 0 -11 -17 -13 -37 -2 -29 -8 -38 -22 -38 -14 0 -20 9 -22 38 -2
20 -7 37 -13 37 -5 0 -11 -17 -13 -37 -3 -30 -7 -38 -23 -38 -16 0 -19 7 -19
50 l0 50 83 -2 82 -3 3 -47z m110 40 c7 -7 12 -20 12 -30 0 -14 -8 -18 -36
-18 -20 0 -33 -4 -29 -10 3 -5 20 -6 38 -3 29 6 31 5 18 -10 -16 -20 -62 -22
-79 -5 -7 7 -12 24 -12 38 0 33 17 50 50 50 14 0 31 -5 38 -12z m933 -9 c18
-34 -3 -69 -41 -69 -22 0 -33 6 -41 24 -16 35 3 66 41 66 20 0 33 -7 41 -21z
m49 -14 c0 -24 5 -35 15 -35 10 0 15 11 15 35 0 24 5 35 15 35 11 0 15 -12 15
-46 l0 -45 -42 3 c-43 3 -43 3 -46 46 -2 33 0 42 12 42 12 0 16 -10 16 -35z
m321 8 c13 -36 11 -63 -5 -63 -9 0 -16 12 -18 33 -2 20 -8 32 -18 32 -10 0
-16 -12 -18 -32 -2 -18 -7 -33 -12 -33 -5 0 -10 15 -12 33 -2 20 -8 32 -18 32
-10 0 -16 -12 -18 -32 -5 -49 -32 -44 -32 5 0 21 3 41 6 45 4 3 36 6 71 6 59
-1 65 -3 74 -26z m97 15 c21 -21 13 -38 -18 -38 -16 0 -30 -5 -30 -11 0 -7 11
-8 32 -3 29 6 31 5 19 -10 -27 -33 -81 -14 -81 29 0 27 18 45 45 45 12 0 26
-5 33 -12z m820 0 c28 -28 7 -78 -33 -78 -27 0 -45 18 -45 45 0 27 18 45 45
45 12 0 26 -5 33 -12z m110 0 c18 -18 16 -78 -3 -78 -10 0 -15 10 -15 29 0 17
-5 33 -11 37 -14 8 -29 -14 -29 -43 0 -13 -4 -23 -10 -23 -5 0 -10 20 -10 45
0 44 1 45 33 45 18 0 38 -5 45 -12z m182 -34 l0 -44 -38 0 c-43 0 -62 14 -62
45 0 31 18 44 61 43 l39 0 0 -44z m91 29 c13 -15 11 -16 -18 -10 -21 4 -33 2
-36 -7 -9 -24 8 -38 39 -30 26 7 28 6 15 -9 -17 -22 -67 -22 -75 -1 -16 41 2
74 40 74 12 0 28 -8 35 -17z m-1341 -1908 c15 -18 -2 -45 -30 -45 -28 0 -45
27 -30 45 7 8 20 15 30 15 10 0 23 -7 30 -15z m-2490 -34 l0 -39 45 6 c56 6
90 -15 104 -63 21 -78 -35 -154 -104 -139 -16 3 -47 5 -67 5 l-38 -2 0 136 0
135 30 0 c28 0 30 -2 30 -39z m480 0 l0 -38 48 5 c41 3 53 0 78 -21 25 -22 29
-32 29 -76 0 -67 -34 -105 -92 -103 -21 1 -57 1 -80 1 l-43 0 0 129 c0 71 3
132 7 135 3 4 17 7 30 7 20 0 23 -5 23 -39z m240 -96 l0 -135 -30 0 -30 0 0
128 c0 71 3 132 7 135 3 4 17 7 30 7 23 0 23 0 23 -135z m1308 -3 l3 -133 -43
0 c-24 0 -60 0 -81 -1 -58 -2 -92 36 -92 103 0 44 4 54 29 76 25 21 37 24 78
21 l48 -5 0 39 c0 37 2 39 28 36 l27 -3 3 -133z m-4096 73 c12 -25 25 -45 29
-45 4 0 15 20 25 45 15 41 20 45 50 45 19 0 34 -3 34 -6 0 -4 -18 -39 -40 -79
-30 -55 -40 -83 -40 -119 0 -44 -1 -46 -30 -46 -29 0 -30 2 -30 43 0 29 -12
64 -40 117 -22 41 -40 78 -40 82 0 5 14 8 30 8 26 0 33 -6 52 -45z m329 -34
c23 -24 29 -38 29 -73 0 -101 -120 -143 -185 -66 -23 27 -26 39 -22 77 7 61
41 91 103 91 37 0 51 -6 75 -29z m119 -40 c0 -76 16 -104 48 -84 13 7 18 28
20 82 l3 71 29 0 30 0 0 -100 0 -100 -43 1 c-24 1 -49 -1 -54 -4 -16 -10 -72
13 -83 33 -6 10 -10 53 -10 94 l0 76 30 0 30 0 0 -69z m460 -32 l0 -99 -47 -1
c-27 0 -62 -1 -80 -1 -61 -3 -102 63 -83 132 15 57 39 69 131 68 l79 0 0 -99z
m158 72 c-2 -17 -10 -27 -23 -30 -29 -5 -35 -19 -35 -83 0 -58 0 -58 -30 -58
l-30 0 0 99 0 100 61 -1 c59 -1 60 -1 57 -27z m179 14 c23 -16 48 -78 38 -95
-3 -5 -37 -10 -75 -10 -57 0 -68 -3 -64 -15 9 -23 43 -29 63 -11 20 18 57 21
67 5 3 -6 -5 -23 -20 -38 -21 -20 -36 -26 -72 -26 -39 0 -50 5 -75 33 -63 71
-20 172 73 172 24 0 53 -7 65 -15z m339 -12 c28 -30 33 -105 9 -139 -22 -32
-69 -48 -104 -36 l-30 11 -3 -52 c-3 -48 -5 -52 -30 -55 l-28 -3 0 149 0 150
81 0 c75 1 83 -1 105 -25z m172 -2 c-2 -17 -11 -27 -28 -31 -23 -5 -25 -11
-28 -73 -3 -67 -3 -67 -32 -67 l-30 0 0 99 0 100 61 -1 c58 -1 60 -2 57 -27z
m193 0 c23 -24 29 -38 29 -73 0 -101 -120 -143 -185 -66 -23 27 -26 39 -22 77
7 61 41 91 103 91 37 0 51 -6 75 -29z m499 -73 l0 -100 -32 3 c-18 1 -47 -1
-65 -5 -36 -8 -86 13 -103 43 -19 37 -12 106 14 134 22 24 30 26 105 25 l81 0
0 -100z m446 47 c10 -30 21 -55 24 -55 4 0 16 24 27 53 18 47 23 52 53 55 28
3 32 1 26 -15 -4 -10 -32 -78 -63 -150 -54 -128 -57 -133 -86 -133 -32 0 -32
4 -4 70 15 35 14 38 -24 129 -21 52 -39 96 -39 98 0 1 16 3 34 3 34 0 36 -2
52 -55z m284 13 c19 -74 22 -75 38 -15 15 54 17 57 48 57 31 0 33 -2 45 -55
14 -62 23 -61 36 5 8 41 11 45 40 48 31 3 32 2 23 -25 -5 -15 -18 -61 -30
-100 -20 -72 -21 -73 -54 -73 -31 0 -34 3 -48 53 l-14 52 -15 -50 c-14 -47
-16 -50 -49 -50 l-34 0 -28 95 c-15 52 -28 96 -28 98 0 1 13 2 30 2 26 0 30
-5 40 -42z m421 13 c23 -24 29 -38 29 -73 0 -101 -120 -143 -185 -66 -23 27
-26 39 -22 77 7 61 41 91 103 91 37 0 51 -6 75 -29z m231 10 c20 -17 23 -30
26 -100 l4 -81 -31 0 c-31 0 -31 0 -31 56 0 67 -13 94 -44 94 -30 0 -36 -16
-36 -91 0 -59 0 -59 -30 -59 l-30 0 0 99 0 100 74 0 c58 0 80 -4 98 -18z m463
-3 c15 -14 28 -38 32 -60 l6 -38 -72 0 c-71 0 -84 -7 -56 -30 13 -11 22 -10
49 5 32 17 66 16 66 -3 0 -5 -12 -19 -26 -33 -38 -35 -104 -34 -141 4 -23 23
-28 36 -28 78 0 43 4 54 28 75 38 32 105 33 142 2z m183 -4 c2 -16 -4 -24 -27
-32 -30 -11 -31 -12 -31 -76 l0 -66 -35 0 -35 0 0 93 c0 52 3 97 7 100 3 4 31
6 62 5 49 -3 56 -6 59 -24z m82 -74 l0 -100 -30 0 -30 0 0 100 0 100 30 0 30
0 0 -100z m212 81 c20 -17 23 -30 26 -100 l4 -81 -31 0 c-30 0 -31 1 -31 49 0
74 -14 103 -48 99 -26 -3 -27 -5 -30 -75 l-3 -73 -29 0 -30 0 0 99 0 100 74 0
c58 0 80 -4 98 -18z m266 -81 c4 -117 -8 -165 -48 -185 -67 -34 -160 -2 -160
56 0 15 57 10 70 -6 24 -29 70 -11 70 27 0 15 -4 16 -26 7 -91 -34 -164 92
-98 170 25 31 27 31 107 29 l82 -3 3 -95z m-4043 -380 c0 -20 -6 -26 -28 -28
-29 -4 -44 16 -33 44 4 10 15 14 33 12 22 -2 28 -8 28 -28z m750 0 c0 -20 -6
-26 -28 -28 -29 -4 -44 16 -33 44 4 10 15 14 33 12 22 -2 28 -8 28 -28z
m-1447 -20 c3 -35 3 -35 46 -32 35 3 48 -1 65 -19 18 -19 21 -35 21 -101 l0
-78 -30 0 -29 0 -3 73 -3 72 -30 0 -30 0 -3 -72 -3 -73 -34 0 -35 0 0 128 c0
71 3 132 7 136 4 4 19 6 33 4 21 -2 25 -9 28 -38z m1212 2 l0 -37 43 3 c31 3
49 -2 67 -16 22 -18 25 -29 28 -101 l4 -81 -31 0 c-31 0 -31 0 -31 56 0 67
-13 94 -44 94 -30 0 -36 -16 -36 -91 0 -59 0 -59 -30 -59 l-30 0 0 135 0 135
30 0 c28 0 30 -2 30 -38z m858 -2 l3 -35 48 3 c43 3 50 1 74 -28 32 -37 35
-88 10 -131 -18 -30 -74 -56 -94 -43 -7 4 -34 6 -61 5 l-48 -1 0 128 c0 71 3
132 7 136 4 4 19 6 33 4 21 -2 25 -9 28 -38z m-1588 -4 c0 -18 6 -25 23 -28
14 -2 22 -10 22 -23 0 -13 -8 -21 -22 -23 -20 -3 -23 -9 -23 -52 0 -43 3 -48
25 -54 16 -4 25 -13 25 -26 0 -16 -7 -20 -37 -20 -55 0 -73 22 -73 92 0 32 -4
58 -10 58 -5 0 -10 11 -10 25 0 14 5 25 10 25 6 0 10 11 10 25 0 21 5 25 30
25 25 0 30 -4 30 -24z m600 0 c0 -18 6 -25 23 -28 14 -2 22 -10 22 -23 0 -13
-8 -21 -22 -23 -20 -3 -23 -9 -23 -52 0 -43 3 -48 25 -54 16 -4 25 -13 25 -26
0 -16 -7 -20 -37 -20 -55 0 -73 22 -73 92 0 32 -4 58 -10 58 -5 0 -10 11 -10
25 0 14 5 25 10 25 6 0 10 11 10 25 0 21 5 25 30 25 25 0 30 -4 30 -24z m1700
-1 c0 -18 5 -25 20 -25 15 0 20 -7 20 -25 0 -18 -5 -25 -20 -25 -17 0 -20 -7
-20 -49 0 -40 3 -50 20 -54 12 -3 20 -14 20 -26 0 -18 -6 -21 -39 -21 -50 0
-62 15 -68 90 -3 33 -10 63 -14 66 -12 7 -11 44 1 44 6 0 10 8 10 18 0 25 9
32 42 32 23 0 28 -4 28 -25z m-3091 -90 l15 -60 15 63 c14 60 15 62 47 62 31
0 33 -2 45 -55 7 -30 15 -55 19 -55 4 0 11 19 14 43 9 56 18 69 48 65 l25 -3
-27 -95 -27 -95 -36 -3 c-30 -3 -37 0 -38 15 0 10 -6 36 -13 58 l-13 40 -13
-57 c-13 -56 -14 -58 -46 -58 -33 0 -33 0 -59 88 -15 48 -28 93 -31 100 -3 10
5 12 28 10 30 -3 33 -6 47 -63z m681 -37 l0 -100 -32 3 c-18 1 -47 -1 -65 -5
-36 -8 -86 13 -103 43 -19 37 -12 106 14 134 22 24 30 26 105 25 l81 0 0 -100z
m328 0 l3 -98 -36 0 -35 0 0 93 c0 52 3 97 7 101 4 4 19 6 33 4 25 -3 25 -4
28 -100z m170 86 c29 -20 29 -54 0 -54 -12 0 -29 7 -39 16 -10 9 -23 13 -28 9
-21 -12 -11 -24 30 -36 47 -15 74 -48 64 -79 -9 -28 -68 -53 -106 -45 -30 7
-73 51 -63 66 8 14 41 10 58 -7 17 -16 49 -16 50 1 1 5 -17 16 -38 23 -22 7
-46 18 -53 24 -18 15 -16 58 4 80 20 23 90 24 121 2z m580 -86 l3 -98 -36 0
-35 0 0 93 c0 52 3 97 7 101 4 4 19 6 33 4 25 -3 25 -4 28 -100z m174 85 c10
-9 18 -24 18 -35 0 -23 -36 -24 -61 -2 -10 9 -23 13 -28 9 -21 -12 -11 -24 29
-36 55 -17 76 -42 64 -77 -19 -53 -108 -67 -149 -22 -34 38 8 69 46 34 18 -17
55 -12 44 5 -3 5 -22 15 -43 22 -20 6 -43 16 -49 22 -21 16 -15 64 9 81 30 21
96 20 120 -1z m346 -86 l3 -97 -49 1 c-27 1 -54 -1 -61 -5 -20 -13 -76 13 -94
43 -25 43 -22 94 9 130 25 31 27 31 107 29 l82 -3 3 -98z m443 75 c26 -23 32
-36 32 -68 0 -54 -17 -83 -60 -100 -91 -38 -180 47 -143 137 17 41 47 59 97
59 33 0 50 -7 74 -28z m119 -36 c0 -62 14 -96 40 -96 26 0 40 34 40 96 l0 64
30 0 30 0 0 -100 0 -100 -47 -1 c-27 0 -61 0 -77 -1 -20 0 -37 8 -53 26 -20
23 -23 38 -23 102 l0 74 30 0 30 0 0 -64z m374 -99 c9 -15 7 -21 -8 -33 -25
-18 -31 -18 -50 2 -12 12 -13 20 -5 35 13 24 47 22 63 -4z m-7236 -1324 c-2
-30 -7 -38 -23 -38 -16 0 -21 8 -23 38 -3 34 -1 37 23 37 24 0 26 -3 23 -37z
m582 -108 l0 -125 -30 0 -30 0 0 125 0 125 30 0 30 0 0 -125z m90 0 l0 -125
-30 0 -30 0 0 125 0 125 30 0 30 0 0 -125z m-875 93 c3 -13 5 -66 3 -118 l-3
-95 -30 0 -30 0 -3 95 c-4 120 1 140 33 140 17 0 26 -7 30 -22z m101 -2 c3
-13 14 -26 25 -29 25 -7 24 -37 -1 -44 -16 -4 -20 -14 -20 -50 0 -36 4 -46 20
-50 11 -3 20 -14 20 -24 0 -15 -7 -19 -39 -19 -51 0 -71 26 -71 92 0 26 -4 50
-10 53 -5 3 -10 15 -10 26 0 10 5 19 10 19 6 0 10 8 10 18 0 25 9 32 36 32 17
0 25 -7 30 -24z m265 -47 c37 -37 -3 -68 -42 -33 -14 13 -22 15 -30 7 -8 -8 2
-18 37 -35 45 -21 49 -26 49 -58 0 -27 -6 -37 -25 -48 -45 -23 -130 5 -130 45
0 15 56 18 65 3 9 -14 37 -12 33 2 -2 6 -17 16 -34 21 -61 20 -81 61 -47 99
23 26 96 25 124 -3z m319 -75 l0 -95 -37 0 c-21 0 -55 -1 -75 -2 -70 -1 -113
69 -84 138 19 45 39 54 124 54 l72 0 0 -95z m1000 -1049 c25 -3 77 -10 115
-15 39 -4 126 -6 195 -4 69 3 178 0 243 -7 97 -10 128 -10 175 2 65 15 393 19
504 5 l66 -9 5 -76 c9 -139 3 -171 -34 -171 -11 0 -38 -9 -61 -21 -26 -13 -68
-23 -112 -26 -71 -5 -324 19 -382 36 -43 12 -158 3 -230 -19 -52 -16 -109 -20
-340 -25 -154 -3 -292 -8 -309 -10 -51 -7 -180 16 -220 38 -51 29 -76 66 -81
118 -8 81 58 156 163 185 47 13 196 13 303 -1z"/>
<path d="M14547 9477 c-3 -8 -2 -20 3 -27 11 -18 42 -4 38 17 -4 22 -34 29
-41 10z"/>
<path d="M14446 9481 c-4 -7 -5 -15 -2 -18 9 -9 19 4 14 18 -4 11 -6 11 -12 0z"/>
<path d="M13420 9475 c-11 -13 -11 -19 3 -33 20 -19 41 -5 35 24 -4 24 -22 28
-38 9z"/>
<path d="M13725 9480 c-3 -5 3 -10 15 -10 12 0 18 5 15 10 -3 6 -10 10 -15 10
-5 0 -12 -4 -15 -10z"/>
<path d="M14653 9474 c-8 -21 13 -42 28 -27 13 13 5 43 -11 43 -6 0 -13 -7
-17 -16z"/>
<path d="M15130 9480 c0 -5 7 -10 15 -10 8 0 15 5 15 10 0 6 -7 10 -15 10 -8
0 -15 -4 -15 -10z"/>
<path d="M15950 9465 c0 -20 4 -26 18 -23 9 2 17 12 17 23 0 11 -8 21 -17 23
-14 3 -18 -3 -18 -23z"/>
<path d="M16227 9484 c-15 -15 -7 -45 11 -42 9 2 17 12 17 22 0 20 -16 31 -28
20z"/>
<path d="M12560 7449 c-15 -28 -9 -59 15 -75 18 -12 24 -11 43 2 24 17 30 62
10 82 -19 19 -56 14 -68 -9z"/>
<path d="M13045 7446 c-27 -41 8 -96 51 -79 8 3 20 17 25 31 12 31 -12 72 -41
72 -11 0 -27 -11 -35 -24z"/>
<path d="M14435 7446 c-27 -41 8 -96 51 -79 8 3 20 17 25 31 12 31 -12 72 -41
72 -11 0 -27 -11 -35 -24z"/>
<path d="M10700 7449 c-15 -26 -5 -66 19 -78 41 -23 84 52 49 87 -19 19 -56
14 -68 -9z"/>
<path d="M11252 7458 c-20 -20 -14 -65 10 -82 42 -30 85 24 58 73 -12 23 -49
28 -68 9z"/>
<path d="M11647 7469 c-28 -16 -20 -29 18 -29 38 0 46 13 17 29 -11 6 -24 6
-35 0z"/>
<path d="M11952 7458 c-20 -20 -14 -65 10 -82 19 -13 25 -14 43 -2 23 16 32
61 14 82 -14 17 -51 18 -67 2z"/>
<path d="M12320 7449 c-15 -26 -5 -66 19 -78 41 -23 84 52 49 87 -19 19 -56
14 -68 -9z"/>
<path d="M12792 7458 c-20 -20 -14 -65 10 -82 19 -13 25 -14 43 -2 23 16 32
61 14 82 -14 17 -51 18 -67 2z"/>
<path d="M13970 7449 c-15 -26 -5 -66 19 -78 41 -23 84 52 49 87 -19 19 -56
14 -68 -9z"/>
<path d="M14687 7469 c-28 -16 -20 -29 18 -29 38 0 46 13 17 29 -11 6 -24 6
-35 0z"/>
<path d="M15370 7451 c-15 -29 -12 -49 10 -71 20 -20 47 -18 62 4 12 17 9 61
-4 74 -18 18 -56 14 -68 -7z"/>
<path d="M12862 6928 c-13 -13 -16 -57 -4 -74 15 -22 42 -24 62 -4 22 22 25
42 10 71 -12 21 -50 25 -68 7z"/>
<path d="M11012 6928 c-20 -20 -14 -65 10 -82 19 -13 25 -14 43 -2 23 16 32
61 14 82 -14 17 -51 18 -67 2z"/>
<path d="M12600 6921 c-15 -29 -12 -49 10 -71 20 -20 47 -18 62 4 12 17 9 61
-4 74 -18 18 -56 14 -68 -7z"/>
<path d="M13080 6914 c-14 -35 -13 -41 10 -64 24 -24 34 -25 54 -4 19 18 21
65 4 82 -21 21 -58 14 -68 -14z"/>
<path d="M6802 5398 c-32 -32 1 -98 42 -82 21 8 32 52 19 73 -13 20 -45 25
-61 9z"/>
<path d="M419 9485 c-23 -102 -24 -115 -10 -115 13 0 22 25 39 108 26 126 26
122 9 122 -9 0 -22 -40 -38 -115z"/>
<path d="M2290 9585 c0 -8 7 -15 15 -15 8 0 15 7 15 15 0 8 -7 15 -15 15 -8 0
-15 -7 -15 -15z"/>
<path d="M820 9575 c0 -8 9 -15 20 -15 19 0 21 -5 18 -77 -3 -72 -5 -78 -26
-81 -13 -2 -25 3 -28 12 -7 17 -44 22 -44 6 0 -22 41 -50 73 -50 55 0 67 22
67 128 l0 92 -40 0 c-29 0 -40 -4 -40 -15z"/>
<path d="M1410 9480 c0 -91 3 -110 15 -110 11 0 15 11 15 38 0 35 14 62 31 62
4 0 24 -22 45 -50 27 -35 45 -50 62 -50 21 0 19 5 -27 62 l-51 62 47 48 c44
45 46 48 23 48 -16 0 -43 -18 -77 -52 l-53 -52 0 52 c0 40 -4 52 -15 52 -12 0
-15 -19 -15 -110z"/>
<path d="M1833 9560 c-3 -11 -12 -20 -19 -20 -8 0 -14 -7 -14 -15 0 -8 5 -15
10 -15 6 0 10 -26 10 -58 0 -63 11 -82 47 -82 26 0 31 15 8 24 -11 4 -15 21
-15 61 0 42 3 55 15 55 8 0 15 7 15 15 0 8 -7 15 -15 15 -8 0 -15 9 -15 20 0
11 -5 20 -11 20 -6 0 -13 -9 -16 -20z"/>
<path d="M293 9528 c-60 -25 -73 -34 -73 -53 0 -18 12 -27 68 -48 75 -30 82
-31 82 -17 0 5 -28 23 -62 39 -60 27 -62 29 -38 39 84 33 100 43 100 56 0 9
-1 16 -2 15 -2 0 -36 -14 -75 -31z"/>
<path d="M490 9544 c0 -8 12 -19 28 -25 15 -5 45 -18 67 -27 l39 -18 -62 -23
c-34 -13 -65 -28 -68 -33 -14 -21 10 -19 81 8 61 23 75 33 75 50 0 15 -9 25
-27 32 -16 5 -52 19 -80 31 -45 18 -53 18 -53 5z"/>
<path d="M968 9529 c-20 -11 -24 -39 -6 -39 6 0 19 7 29 16 22 20 49 12 49
-16 0 -16 -7 -20 -31 -20 -45 0 -69 -16 -69 -48 0 -16 5 -33 12 -40 17 -17 63
-15 79 4 11 14 13 14 21 0 10 -18 48 -22 48 -6 0 6 -4 10 -10 10 -5 0 -10 24
-10 53 0 67 -20 97 -63 97 -18 0 -40 -5 -49 -11z m72 -99 c0 -29 -38 -46 -58
-26 -13 12 -13 18 -2 30 19 24 60 21 60 -4z"/>
<path d="M1130 9455 c0 -69 3 -85 15 -85 11 0 15 12 15 51 0 62 13 89 44 89
29 0 36 -16 36 -86 0 -41 4 -54 15 -54 12 0 15 15 15 73 0 43 -5 78 -12 85
-17 17 -58 15 -80 -5 -17 -15 -18 -15 -18 0 0 10 -7 17 -15 17 -12 0 -15 -16
-15 -85z"/>
<path d="M1645 9515 c-31 -30 -33 -82 -4 -119 16 -20 29 -26 59 -26 49 0 80
35 80 90 0 73 -83 107 -135 55z m76 -5 c14 -8 19 -21 19 -56 0 -38 -4 -46 -25
-56 -36 -16 -55 4 -55 58 0 30 5 46 18 53 21 13 20 13 43 1z"/>
<path d="M1938 9529 c-20 -11 -24 -39 -6 -39 6 0 19 7 29 16 22 20 49 12 49
-16 0 -16 -7 -20 -31 -20 -45 0 -69 -16 -69 -48 0 -16 5 -33 12 -40 17 -17 63
-15 79 4 11 14 13 14 21 0 5 -9 18 -16 28 -16 21 0 27 15 10 25 -5 3 -10 30
-10 59 0 39 -5 57 -18 69 -21 19 -68 22 -94 6z m72 -99 c0 -21 -34 -45 -50
-35 -11 7 -13 38 -3 48 3 4 17 7 30 7 16 0 23 -6 23 -20z"/>
<path d="M2100 9455 c0 -69 3 -85 15 -85 11 0 15 12 15 51 0 62 13 89 44 89
29 0 36 -16 36 -86 0 -41 4 -54 15 -54 12 0 15 15 15 73 0 43 -5 78 -12 85
-17 17 -58 15 -80 -5 -17 -15 -18 -15 -18 0 0 10 -7 17 -15 17 -12 0 -15 -16
-15 -85z"/>
<path d="M2290 9455 c0 -69 3 -85 15 -85 12 0 15 16 15 85 0 69 -3 85 -15 85
-12 0 -15 -16 -15 -85z"/>
<path d="M2386 9524 c-9 -8 -16 -20 -16 -25 0 -16 32 -10 46 9 10 13 17 15 31
6 10 -6 19 -19 21 -28 3 -13 -5 -16 -36 -16 -52 0 -80 -29 -66 -68 11 -32 62
-43 87 -18 13 14 16 14 21 1 3 -8 17 -15 31 -15 27 0 34 14 10 24 -11 4 -15
21 -15 60 0 65 -16 86 -65 86 -18 0 -41 -7 -49 -16z m84 -84 c0 -13 -37 -50
-50 -50 -14 0 -24 26 -16 45 6 17 66 21 66 5z"/>
<path d="M5520 8050 l0 -210 40 0 40 0 0 210 0 210 -40 0 -40 0 0 -210z"/>
<path d="M5670 8050 l0 -211 43 3 42 3 0 205 0 205 -42 3 -43 3 0 -211z"/>
<path d="M6204 8203 c3 -21 6 -82 6 -135 l0 -98 34 0 c43 0 46 10 46 158 l0
112 -46 0 -47 0 7 -37z"/>
<path d="M4770 8035 l0 -195 40 0 40 0 0 80 0 80 80 0 80 0 0 -81 0 -80 43 3
42 3 0 190 0 190 -42 3 -43 3 0 -80 0 -81 -80 0 -80 0 0 80 0 80 -40 0 -40 0
0 -195z"/>
<path d="M5233 8140 c-128 -65 -99 -278 41 -304 70 -13 176 40 176 88 0 24
-65 21 -99 -5 -45 -33 -111 -9 -111 40 0 7 39 11 110 11 l110 0 0 43 c0 47
-26 97 -63 122 -42 27 -116 29 -164 5z m107 -60 c11 -6 24 -19 30 -30 10 -19
7 -20 -60 -20 -76 0 -91 14 -48 44 26 18 51 20 78 6z"/>
<path d="M5915 8150 c-17 -5 -46 -25 -65 -45 -30 -31 -35 -43 -38 -98 -3 -52
0 -67 20 -96 38 -56 72 -75 131 -75 98 0 158 55 165 151 3 48 0 64 -20 92 -12
19 -34 42 -48 53 -30 22 -103 31 -145 18z m106 -86 c36 -32 29 -123 -11 -144
-89 -48 -163 69 -90 142 25 24 36 29 58 23 15 -3 34 -13 43 -21z"/>
<path d="M6218 7919 c-26 -15 -22 -56 7 -75 23 -15 27 -15 50 0 58 38 2 110
-57 75z"/>
</g>
</svg>
