<?xml version="1.0" standalone="no"?>
<!DOCTYPE svg PUBLIC "-//W3C//DTD SVG 20010904//EN"
 "http://www.w3.org/TR/2001/REC-SVG-20010904/DTD/svg10.dtd">
<svg version="1.0" xmlns="http://www.w3.org/2000/svg"
 width="1871.000000pt" height="971.000000pt" viewBox="0 0 1871.000000 971.000000"
 preserveAspectRatio="xMidYMid meet">

<g transform="translate(0.000000,971.000000) scale(0.100000,-0.100000)"
fill="#000000" stroke="none">
<path d="M0 4855 l0 -4855 9355 0 9355 0 0 4855 0 4855 -9355 0 -9355 0 0
-4855z m375 4453 c-10 -40 -22 -80 -27 -88 -7 -12 -8 -10 -4 5 3 11 13 53 22
93 9 40 18 71 21 68 3 -3 -3 -38 -12 -78z m15276 28 c-9 -11 -7 -15 9 -19 38
-10 39 -80 1 -90 -26 -6 -61 19 -61 44 0 10 -4 19 -10 19 -5 0 -10 -13 -10
-30 0 -16 -4 -30 -9 -30 -12 0 -17 43 -12 88 3 34 21 45 21 13 0 -25 29 -36
37 -13 7 18 35 43 42 36 2 -2 -1 -10 -8 -18z m1459 3 c0 -5 -7 -9 -15 -9 -15
0 -20 12 -9 23 8 8 24 -1 24 -14z m-2154 -6 c13 -13 19 -14 22 -5 5 17 20 15
40 -5 12 -12 13 -18 4 -21 -14 -4 -16 -52 -2 -52 6 0 10 -4 10 -10 0 -5 -9
-10 -19 -10 -21 0 -31 19 -31 56 0 17 -6 24 -19 24 -11 0 -23 5 -26 10 -4 6
-11 8 -16 5 -16 -11 -10 -24 15 -31 47 -11 43 -64 -4 -64 -15 0 -34 7 -41 17
-13 15 -11 16 14 9 43 -10 55 5 17 23 -40 19 -46 33 -25 55 21 21 39 20 61 -1z
m1782 1 c43 -30 22 -104 -30 -104 -65 0 -90 61 -42 99 32 25 43 26 72 5z
m1133 -8 c36 35 48 26 15 -12 l-25 -29 27 -27 c31 -34 10 -39 -25 -6 l-23 21
0 -21 c0 -12 -4 -22 -10 -22 -5 0 -10 24 -10 53 0 57 13 87 18 42 l4 -27 29
28z m439 -8 c1 -30 2 -31 14 -15 7 9 21 17 30 17 9 0 16 5 16 10 0 15 20 12
38 -7 12 -12 13 -18 4 -21 -14 -4 -16 -52 -2 -52 6 0 10 -4 10 -10 0 -16 -37
-11 -44 6 -3 9 -6 28 -6 42 l0 26 -22 -21 c-21 -22 -21 -23 -3 -43 12 -13 14
-20 5 -20 -7 0 -19 8 -26 18 -13 16 -13 16 -14 0 0 -10 -4 -18 -10 -18 -6 0
-10 27 -10 60 0 33 4 60 10 60 6 0 10 -15 10 -32z m-152 5 c12 -12 13 -18 4
-21 -14 -4 -16 -52 -2 -52 6 0 10 -4 10 -10 0 -21 -40 -10 -44 13 -18 79 -5
107 32 70z m-17872 -10 l-30 -16 30 -24 29 -25 -32 16 c-18 9 -33 21 -33 26 0
11 40 40 55 40 5 -1 -3 -8 -19 -17z m174 2 c17 -9 30 -19 30 -23 0 -5 -17 -16
-37 -25 -30 -14 -34 -14 -19 -2 11 8 23 15 28 15 18 0 6 20 -19 34 -37 20 -21
20 17 1z m14630 -4 c0 -5 -7 -11 -15 -15 -9 -3 -15 -18 -15 -36 0 -16 -4 -30
-10 -30 -5 0 -10 20 -10 45 0 41 2 45 25 45 14 0 25 -4 25 -9z m88 -3 c32 -32
-5 -92 -49 -81 -29 8 -44 45 -30 72 13 23 59 29 79 9z m100 0 c14 -14 16 -78
3 -78 -6 0 -11 15 -13 33 -2 24 -8 32 -23 32 -15 0 -21 -8 -23 -32 -5 -49 -22
-40 -22 12 0 44 1 45 33 45 18 0 38 -5 45 -12z m112 -32 c0 -39 -3 -44 -25
-48 -32 -7 -65 17 -65 46 0 31 18 46 57 46 32 0 33 -1 33 -44z m150 -16 c0
-47 -4 -61 -18 -69 -23 -12 -59 -4 -66 15 -6 17 15 19 31 3 12 -12 33 -4 33
13 0 5 -6 8 -14 5 -21 -8 -56 21 -56 47 0 31 18 46 57 46 l33 0 0 -60z m180
41 c0 -30 17 -34 24 -6 8 30 26 33 33 5 3 -11 9 -20 14 -20 5 0 9 9 9 20 0 11
6 20 14 20 12 0 12 -7 1 -42 -13 -46 -38 -57 -43 -20 -4 26 -22 20 -22 -9 0
-36 -28 -19 -43 26 -14 39 -14 45 -1 45 8 0 14 -9 14 -19z m198 -28 c2 -26 -1
-43 -7 -43 -6 0 -11 16 -11 35 0 28 -4 35 -20 35 -16 0 -20 -7 -20 -35 0 -19
-4 -35 -10 -35 -5 0 -10 21 -10 46 l0 45 38 -3 c36 -3 37 -4 40 -45z m112 0
l0 -43 -40 0 c-33 0 -42 4 -51 24 -18 39 3 66 51 64 l40 -1 0 -44z m929 29
c11 -20 3 -72 -10 -72 -5 0 -9 16 -9 36 0 28 -3 35 -17 32 -12 -2 -19 -14 -21
-36 -4 -43 -22 -41 -22 3 0 28 -4 35 -20 35 -16 0 -20 -7 -20 -35 0 -19 -4
-35 -10 -35 -5 0 -10 20 -10 45 l0 44 65 0 c50 -1 67 -5 74 -17z m100 0 c10
-20 3 -72 -10 -72 -5 0 -9 16 -9 35 0 28 -4 35 -20 35 -16 0 -20 -7 -20 -35 0
-19 -4 -35 -10 -35 -5 0 -10 20 -10 45 0 45 0 45 35 45 22 0 38 -6 44 -18z
m41 -27 c0 -25 -4 -45 -10 -45 -5 0 -10 20 -10 45 0 25 5 45 10 45 6 0 10 -20
10 -45z m99 31 c15 -18 8 -56 -13 -72 -27 -19 -66 2 -66 36 0 14 5 31 12 38
16 16 53 15 67 -2z m802 -7 c8 -16 8 -28 0 -46 -9 -19 -17 -24 -43 -21 -40 4
-56 28 -40 62 15 34 66 37 83 5z m98 3 c10 -20 3 -72 -10 -72 -5 0 -9 16 -9
35 0 28 -4 35 -20 35 -16 0 -20 -7 -20 -35 0 -19 -4 -35 -10 -35 -5 0 -10 20
-10 45 0 45 0 45 35 45 22 0 38 -6 44 -18z m171 -29 l0 -43 -40 0 c-33 0 -42
4 -51 24 -18 39 3 66 51 64 l40 -1 0 -44z m-62 -1503 c18 -11 41 -34 52 -52
20 -33 20 -54 17 -3143 l-2 -3110 -22 -31 c-13 -17 -38 -39 -57 -48 -31 -15
-734 -16 -8818 -16 -8746 0 -8783 0 -8816 20 -18 11 -41 34 -52 52 -20 33 -20
57 -20 3138 0 3081 0 3105 20 3138 11 18 34 41 52 52 33 20 70 20 8823 20
8753 0 8790 0 8823 -20z"/>
<path d="M15627 9294 c-4 -4 -7 -16 -7 -26 0 -14 6 -19 23 -16 14 2 22 10 22
23 0 20 -25 32 -38 19z"/>
<path d="M16676 9314 c-29 -29 -12 -64 31 -64 31 0 44 47 18 67 -24 17 -30 16
-49 -3z"/>
<path d="M15120 9275 c0 -22 4 -26 23 -23 14 2 22 10 22 23 0 13 -8 21 -22 23
-19 3 -23 -1 -23 -23z"/>
<path d="M15324 9285 c-8 -20 4 -35 27 -35 14 0 19 7 19 25 0 18 -5 25 -20 25
-11 0 -23 -7 -26 -15z"/>
<path d="M15474 9285 c-8 -20 4 -35 27 -35 14 0 19 7 19 25 0 18 -5 25 -20 25
-11 0 -23 -7 -26 -15z"/>
<path d="M15960 9275 c0 -22 4 -26 23 -23 14 2 22 10 22 23 0 13 -8 21 -22 23
-19 3 -23 -1 -23 -23z"/>
<path d="M17145 9290 c-4 -6 5 -10 20 -10 15 0 24 4 20 10 -3 6 -12 10 -20 10
-8 0 -17 -4 -20 -10z"/>
<path d="M17140 9260 c0 -12 26 -19 39 -10 9 5 4 9 -13 12 -14 3 -26 2 -26 -2z"/>
<path d="M17936 9284 c-8 -21 1 -34 23 -34 18 0 35 33 23 44 -11 12 -40 5 -46
-10z"/>
<path d="M18200 9275 c0 -22 4 -26 23 -23 14 2 22 10 22 23 0 13 -8 21 -22 23
-19 3 -23 -1 -23 -23z"/>
<path d="M1084 7455 c-4 -9 -2 -21 4 -27 15 -15 44 -1 40 19 -4 23 -36 29 -44
8z"/>
<path d="M2208 7458 c-8 -21 2 -38 22 -38 19 0 30 17 23 38 -3 6 -13 12 -23
12 -10 0 -20 -6 -22 -12z"/>
<path d="M680 7330 l0 -110 25 0 c23 0 25 4 25 45 0 25 4 45 9 45 5 0 21 -20
35 -45 17 -29 34 -45 46 -45 25 0 25 7 0 48 l-21 33 26 30 c30 37 31 49 4 83
-18 23 -27 26 -85 26 l-64 0 0 -110z m108 71 c8 -4 12 -19 10 -32 -2 -19 -10
-25 -35 -27 -32 -3 -33 -2 -33 32 0 31 3 36 23 36 12 0 28 -4 35 -9z"/>
<path d="M1550 7420 c0 -11 -4 -20 -10 -20 -5 0 -10 -9 -10 -20 0 -11 4 -20 9
-20 5 0 11 -24 13 -54 5 -65 20 -86 59 -86 34 0 41 29 9 37 -17 4 -20 14 -20
54 0 42 3 49 20 49 12 0 20 7 20 16 0 9 -9 18 -20 21 -11 3 -20 14 -20 24 0
14 -7 19 -25 19 -18 0 -25 -5 -25 -20z"/>
<path d="M923 7390 c-28 -12 -43 -40 -43 -85 0 -47 36 -85 82 -85 34 0 78 23
78 41 0 12 -47 12 -55 -1 -9 -15 -31 -12 -49 6 -28 27 -18 34 49 34 57 0 65 2
65 19 0 33 -11 51 -41 66 -31 17 -54 18 -86 5z m82 -56 c0 -11 -51 -18 -73 -9
-15 6 -14 9 7 26 21 17 26 18 45 6 12 -8 21 -18 21 -23z"/>
<path d="M1090 7290 c0 -89 -3 -112 -15 -116 -24 -9 -18 -34 8 -34 41 0 47 17
47 142 0 111 -1 118 -20 118 -19 0 -20 -7 -20 -110z"/>
<path d="M1193 7376 c-37 -32 -39 -93 -4 -130 33 -35 88 -36 121 -1 l23 25
-22 0 c-12 0 -31 -5 -42 -10 -23 -13 -59 3 -59 25 0 12 15 15 66 15 l66 0 -6
28 c-9 37 -51 72 -86 72 -16 0 -41 -11 -57 -24z m95 -38 c3 -15 -4 -18 -37
-18 -39 0 -53 14 -34 34 14 14 68 1 71 -16z"/>
<path d="M1392 7384 c-24 -17 -30 -58 -9 -71 6 -4 27 -13 46 -18 19 -6 36 -16
39 -23 6 -18 -28 -27 -49 -14 -10 7 -29 12 -41 12 l-21 0 23 -25 c30 -32 81
-34 111 -4 30 30 20 51 -33 77 -27 12 -48 26 -48 31 0 16 28 20 47 6 24 -19
43 -19 43 -1 0 19 -38 46 -65 46 -11 0 -31 -7 -43 -16z"/>
<path d="M1670 7310 c0 -83 1 -90 20 -90 17 0 20 7 20 46 0 55 14 84 40 84 15
0 20 7 20 26 0 19 -4 25 -15 20 -8 -3 -22 -9 -30 -12 -8 -3 -15 -1 -15 5 0 6
-9 11 -20 11 -19 0 -20 -7 -20 -90z"/>
<path d="M1815 7375 c-53 -52 -18 -155 53 -155 15 0 34 6 41 13 11 10 14 10
18 0 3 -7 13 -13 24 -13 17 0 19 8 19 90 0 82 -2 90 -19 90 -11 0 -21 -5 -23
-11 -3 -9 -9 -9 -25 0 -34 17 -62 13 -88 -14z m99 -31 c28 -28 14 -73 -27 -87
-20 -7 -57 24 -57 49 0 48 51 72 84 38z"/>
<path d="M2035 7375 c-56 -55 -18 -155 60 -155 34 0 75 27 75 50 0 15 -32 12
-54 -5 -25 -19 -31 -19 -50 1 -19 18 -21 65 -4 82 15 15 54 16 63 2 8 -13 45
-13 45 -1 0 18 -53 51 -82 51 -17 0 -39 -10 -53 -25z"/>
<path d="M2210 7290 c0 -89 -3 -112 -15 -116 -24 -9 -18 -34 8 -34 41 0 47 17
47 142 0 111 -1 118 -20 118 -19 0 -20 -7 -20 -110z"/>
<path d="M2315 7375 c-53 -52 -18 -155 53 -155 15 0 34 6 41 13 11 10 14 10
18 0 3 -7 13 -13 24 -13 17 0 19 8 19 90 0 82 -2 90 -19 90 -11 0 -21 -5 -23
-11 -3 -9 -9 -9 -25 0 -34 17 -62 13 -88 -14z m99 -31 c28 -28 14 -73 -27 -87
-20 -7 -57 24 -57 49 0 48 51 72 84 38z"/>
<path d="M1589 6805 c-2 -16 -2 -43 2 -60 6 -28 7 -28 8 -4 0 14 6 30 13 37 9
9 9 12 1 12 -7 0 -13 10 -15 23 -3 18 -5 17 -9 -8z"/>
<path d="M1785 6820 c-3 -6 1 -7 9 -4 18 7 21 14 7 14 -6 0 -13 -4 -16 -10z"/>
<path d="M1898 6813 c-2 -10 -1 -36 3 -58 l6 -40 2 38 c0 22 6 37 14 37 9 0 8
3 -2 9 -7 5 -10 14 -7 20 4 6 3 11 -2 11 -5 0 -11 -8 -14 -17z"/>
<path d="M2353 6775 c0 -33 2 -45 4 -27 2 18 2 45 0 60 -2 15 -4 0 -4 -33z"/>
<path d="M670 6768 c0 -28 2 -49 5 -46 10 9 12 98 3 98 -4 0 -8 -23 -8 -52z"/>
<path d="M719 6811 c9 -6 11 -16 7 -27 -6 -15 -4 -16 5 -7 14 14 5 43 -13 43
-10 0 -9 -3 1 -9z"/>
<path d="M761 6755 c2 -33 3 -35 6 -10 2 17 11 35 20 42 13 10 13 12 -6 10
-18 -1 -21 -7 -20 -42z"/>
<path d="M821 6786 c-16 -19 -11 -46 12 -60 25 -16 52 4 52 40 0 24 -5 30 -26
32 -14 2 -31 -4 -38 -12z m54 -26 c0 -29 -38 -41 -48 -16 -10 26 4 47 27 44
15 -2 21 -10 21 -28z"/>
<path d="M917 6793 c-13 -12 -7 -23 18 -35 28 -13 23 -32 -8 -24 -14 3 -17 2
-10 -5 14 -14 45 -8 50 8 3 7 -7 18 -21 24 -34 16 -34 33 0 25 17 -5 23 -3 19
4 -7 11 -38 14 -48 3z"/>
<path d="M1003 6793 c21 -5 21 -12 2 -37 -21 -28 -19 -36 13 -35 24 2 24 2 4
6 l-23 4 21 35 22 34 -29 -1 c-17 -1 -21 -3 -10 -6z"/>
<path d="M1060 6780 c-9 -17 -7 -28 10 -55 12 -19 27 -35 33 -35 7 0 6 4 -3
10 -13 8 -12 11 4 23 18 13 18 14 -4 13 -13 -1 -25 5 -27 12 -3 8 6 12 27 12
25 0 31 3 26 16 -3 9 -6 18 -6 20 0 14 -51 1 -60 -16z m55 0 c4 -6 -5 -10 -19
-10 -14 0 -26 5 -26 10 0 6 9 10 19 10 11 0 23 -4 26 -10z"/>
<path d="M1191 6773 c5 -16 12 -35 15 -43 4 -10 12 -3 25 24 22 45 22 46 10
46 -4 0 -13 -15 -18 -32 l-11 -33 -7 33 c-4 17 -11 32 -16 32 -5 0 -4 -12 2
-27z"/>
<path d="M1283 6785 c-3 -9 -3 -18 -1 -21 3 -3 8 4 11 16 6 23 -1 27 -10 5z"/>
<path d="M1311 6797 c-1 -4 6 -24 14 -43 11 -27 12 -41 4 -57 -7 -14 -8 -18
-1 -12 12 11 54 115 47 115 -3 0 -11 -15 -19 -32 l-13 -33 -16 35 c-8 19 -16
31 -16 27z"/>
<path d="M1401 6736 c1 -39 4 -52 8 -36 4 18 13 25 30 25 58 0 51 69 -8 71
l-31 1 1 -61z m64 44 c11 -18 -6 -50 -26 -50 -22 0 -34 22 -25 45 6 17 42 20
51 5z"/>
<path d="M1507 6794 c-4 -4 -7 -20 -7 -35 0 -22 6 -30 26 -35 14 -4 30 -2 36
4 8 8 3 11 -17 9 -15 -1 -30 4 -32 11 -3 8 6 12 27 12 25 0 31 4 28 18 -3 17
-48 29 -61 16z m53 -14 c0 -5 -12 -10 -26 -10 -14 0 -23 4 -19 10 3 6 15 10
26 10 10 0 19 -4 19 -10z"/>
<path d="M1631 6756 l2 -41 6 35 c4 26 12 36 28 38 18 3 22 -2 26 -35 l4 -38
-1 40 c-1 38 -3 40 -33 41 -32 1 -33 0 -32 -40z"/>
<path d="M1733 6760 c0 -25 2 -35 4 -22 2 12 2 32 0 45 -2 12 -4 2 -4 -23z"/>
<path d="M1767 6793 c-11 -11 -8 -48 5 -61 14 -14 44 -16 53 -3 3 6 -7 9 -22
8 -24 -2 -28 2 -28 23 0 21 5 25 27 25 14 -1 24 3 22 7 -6 10 -48 11 -57 1z"/>
<path d="M1944 6786 c-15 -40 21 -80 54 -60 37 24 21 74 -25 74 -13 0 -26 -6
-29 -14z m61 -6 c11 -18 -6 -50 -26 -50 -22 0 -34 22 -25 45 6 17 42 20 51 5z"/>
<path d="M2041 6755 c2 -33 3 -35 6 -10 2 17 11 35 20 42 13 10 13 12 -6 10
-18 -1 -21 -7 -20 -42z"/>
<path d="M2102 6757 l1 -42 4 38 c4 33 7 38 26 35 16 -2 24 -12 28 -38 l6 -35
2 38 c1 30 5 37 21 37 13 0 22 -9 26 -27 10 -46 12 -49 13 -18 1 45 -9 53 -71
54 l-58 0 2 -42z"/>
<path d="M2251 6774 c-1 -36 15 -54 47 -51 19 1 22 7 21 42 l-2 40 -6 -35 c-4
-26 -11 -35 -26 -35 -15 0 -22 9 -26 35 l-6 35 -2 -31z"/>
<path d="M2387 6794 c-22 -22 2 -75 33 -73 9 0 6 4 -8 10 -33 13 -27 54 8 54
20 0 25 -5 25 -27 0 -14 3 -30 8 -34 4 -4 7 10 7 32 0 38 -2 40 -33 42 -18 1
-36 -1 -40 -4z"/>
<path d="M2493 6760 c0 -25 2 -35 4 -22 2 12 2 32 0 45 -2 12 -4 2 -4 -23z"/>
<path d="M2553 6793 c21 -5 21 -12 2 -37 -21 -28 -19 -36 13 -35 24 2 24 2 4
6 l-23 4 21 35 22 34 -29 -1 c-17 -1 -21 -3 -10 -6z"/>
<path d="M2651 6736 c1 -39 4 -52 8 -36 4 18 13 25 30 25 58 0 51 69 -8 71
l-31 1 1 -61z m64 44 c11 -18 -6 -50 -26 -50 -22 0 -34 22 -25 45 6 17 42 20
51 5z"/>
<path d="M2757 6793 c-13 -13 -7 -61 9 -67 29 -11 44 -6 56 19 8 19 8 28 -2
40 -13 15 -51 20 -63 8z m57 -19 c7 -19 -10 -44 -31 -44 -17 0 -27 24 -19 45
7 20 42 19 50 -1z"/>
<path d="M2852 6758 l1 -43 4 38 c4 33 7 38 26 35 16 -2 24 -12 28 -38 5 -29
7 -31 8 -8 2 43 -9 58 -40 58 -28 0 -29 -2 -27 -42z"/>
<path d="M2943 6760 c0 -25 2 -35 4 -22 2 12 2 32 0 45 -2 12 -4 2 -4 -23z"/>
<path d="M2988 6793 l23 -4 -21 -35 -22 -34 34 1 c23 1 26 3 11 6 -28 5 -28 8
-2 44 l20 29 -33 -1 c-24 -1 -27 -3 -10 -6z"/>
<path d="M3050 6780 c-8 -14 -8 -26 0 -40 11 -20 44 -27 54 -12 3 5 -4 8 -16
8 -12 -1 -23 5 -25 12 -3 8 6 12 27 12 25 0 31 3 26 16 -3 9 -6 18 -6 20 0 14
-51 1 -60 -16z m55 0 c4 -6 -5 -10 -19 -10 -14 0 -26 5 -26 10 0 6 9 10 19 10
11 0 23 -4 26 -10z"/>
<path d="M3140 6743 c-3 -34 -1 -58 3 -54 5 4 7 32 5 62 l-3 54 -5 -62z"/>
<path d="M1251 6763 c-2 -20 11 -43 20 -37 5 3 9 10 9 15 0 6 -4 8 -9 4 -5 -3
-12 3 -14 12 -3 10 -5 13 -6 6z"/>
<path d="M935 6120 c3 -5 10 -10 16 -10 5 0 9 5 9 10 0 6 -7 10 -16 10 -8 0
-12 -4 -9 -10z"/>
<path d="M1115 6120 c3 -5 10 -10 16 -10 5 0 9 5 9 10 0 6 -7 10 -16 10 -8 0
-12 -4 -9 -10z"/>
<path d="M1625 6120 c3 -5 10 -10 16 -10 5 0 9 5 9 10 0 6 -7 10 -16 10 -8 0
-12 -4 -9 -10z"/>
<path d="M1760 6071 c0 -34 4 -61 10 -61 6 0 10 7 10 17 0 15 1 15 18 0 26
-24 39 -21 17 3 -17 18 -17 21 -1 45 19 29 11 33 -16 8 -17 -15 -18 -15 -18
10 0 14 -4 29 -10 32 -6 4 -10 -17 -10 -54z"/>
<path d="M720 6065 c0 -30 5 -55 10 -55 6 0 10 25 10 55 0 30 -4 55 -10 55 -5
0 -10 -25 -10 -55z"/>
<path d="M770 6054 c0 -24 5 -44 10 -44 6 0 10 16 10 36 0 28 3 35 18 32 11
-2 18 -14 20 -36 2 -17 7 -32 12 -32 5 0 10 15 12 32 2 22 9 34 21 36 14 3 17
-4 17 -32 0 -20 5 -36 10 -36 11 0 14 79 3 81 -5 1 -36 3 -70 4 l-63 2 0 -43z"/>
<path d="M940 6056 c0 -25 5 -46 10 -46 6 0 10 18 10 39 0 22 -4 43 -10 46 -6
4 -10 -12 -10 -39z"/>
<path d="M986 6084 c-9 -8 -16 -19 -16 -24 0 -22 36 -80 50 -80 12 0 13 2 1 9
-11 7 -9 11 8 20 29 16 27 33 -3 25 -13 -3 -27 -1 -30 5 -5 7 5 11 28 11 20 0
36 4 36 9 0 14 -30 41 -45 41 -7 0 -21 -7 -29 -16z m49 -14 c4 -6 -5 -10 -20
-10 -15 0 -24 4 -20 10 3 6 12 10 20 10 8 0 17 -4 20 -10z"/>
<path d="M1120 6056 c0 -25 5 -46 10 -46 6 0 10 18 10 39 0 22 -4 43 -10 46
-6 4 -10 -12 -10 -39z"/>
<path d="M1200 6054 c0 -24 5 -44 10 -44 6 0 10 16 10 35 0 28 4 35 20 35 16
0 20 -7 20 -35 0 -19 5 -35 10 -35 14 0 12 66 -2 78 -7 5 -25 10 -40 10 -26 0
-28 -3 -28 -44z"/>
<path d="M1311 6087 c-15 -15 -14 -52 2 -64 6 -6 27 -10 45 -10 31 0 32 2 32
42 0 40 -1 41 -34 42 -19 1 -39 -4 -45 -10z m54 -32 c0 -13 -8 -21 -22 -23
-17 -3 -23 2 -23 16 0 10 3 22 7 26 13 13 38 1 38 -19z"/>
<path d="M1410 6090 c0 -5 7 -10 15 -10 8 0 15 -4 15 -9 0 -5 -7 -14 -15 -21
-25 -21 -18 -40 15 -40 17 0 30 5 30 10 0 6 -7 10 -15 10 -8 0 -15 4 -15 9 0
5 7 14 15 21 25 21 18 40 -15 40 -16 0 -30 -4 -30 -10z"/>
<path d="M1493 6058 c15 -49 34 -60 43 -24 7 29 24 25 24 -5 0 -29 27 -23 34
9 4 15 9 35 12 45 3 9 1 17 -4 17 -5 0 -13 -15 -17 -32 l-7 -33 -11 33 c-11
34 -25 42 -32 17 -16 -49 -17 -50 -27 -17 -5 17 -13 32 -18 32 -5 0 -3 -19 3
-42z"/>
<path d="M1630 6056 c0 -25 5 -46 10 -46 6 0 10 18 10 39 0 22 -4 43 -10 46
-6 4 -10 -12 -10 -39z"/>
<path d="M1677 6093 c-15 -14 -6 -34 19 -43 14 -6 22 -15 19 -20 -5 -8 -11 -7
-21 1 -16 13 -30 6 -19 -10 9 -15 40 -14 54 3 9 11 6 18 -16 36 l-28 21 29 -6
c26 -5 28 -4 17 9 -14 16 -42 21 -54 9z"/>
<path d="M1860 6086 c-28 -35 11 -93 48 -70 35 22 22 84 -18 84 -10 0 -23 -7
-30 -14z m50 -31 c0 -18 -5 -25 -20 -25 -15 0 -20 7 -20 25 0 18 5 25 20 25
15 0 20 -7 20 -25z"/>
<path d="M711 5806 c-44 -24 -50 -51 -51 -208 0 -161 7 -191 51 -214 24 -12
1099 -14 7848 -14 6042 0 7826 3 7846 12 47 21 55 53 55 213 0 160 -8 192 -55
213 -40 19 -15660 17 -15694 -2z m15710 -25 l29 -29 0 -157 0 -157 -29 -29
-29 -29 -7832 0 -7832 0 -29 29 -29 29 0 157 0 157 29 29 29 29 7832 0 7832 0
29 -29z"/>
<path d="M863 5585 c0 -22 2 -30 4 -17 2 12 2 30 0 40 -3 9 -5 -1 -4 -23z"/>
<path d="M887 5613 c6 -4 13 -22 16 -38 4 -27 5 -27 3 4 0 21 -7 36 -16 38
-10 3 -11 2 -3 -4z"/>
<path d="M973 5585 c0 -22 2 -30 4 -17 2 12 2 30 0 40 -3 9 -5 -1 -4 -23z"/>
<path d="M1007 5613 c-3 -5 5 -8 18 -8 13 0 21 3 18 8 -2 4 -10 7 -18 7 -8 0
-16 -3 -18 -7z"/>
<path d="M1113 5585 c0 -22 2 -30 4 -17 2 12 2 30 0 40 -3 9 -5 -1 -4 -23z"/>
<path d="M1186 5611 c-4 -5 3 -7 14 -4 23 6 26 13 6 13 -8 0 -17 -4 -20 -9z"/>
<path d="M1272 5614 c10 -3 19 -19 21 -37 4 -31 5 -31 3 3 -1 27 -5 35 -21 37
-14 1 -15 0 -3 -3z"/>
<path d="M1333 5613 c9 -2 23 -2 30 0 6 3 -1 5 -18 5 -16 0 -22 -2 -12 -5z"/>
<path d="M1520 5616 c0 -2 9 -6 20 -9 11 -3 18 -1 14 4 -5 9 -34 13 -34 5z"/>
<path d="M1604 5598 l-19 -23 23 19 c21 18 27 26 19 26 -2 0 -12 -10 -23 -22z"/>
<path d="M1660 5616 c0 -2 9 -6 20 -9 11 -3 18 -1 14 4 -5 9 -34 13 -34 5z"/>
<path d="M1651 5584 c0 -11 3 -14 6 -6 3 7 2 16 -1 19 -3 4 -6 -2 -5 -13z"/>
<path d="M1013 5583 c9 -2 23 -2 30 0 6 3 -1 5 -18 5 -16 0 -22 -2 -12 -5z"/>
<path d="M1255 5580 c-8 -13 3 -30 18 -30 7 0 6 4 -3 10 -13 9 -13 11 0 20 9
6 10 10 3 10 -6 0 -15 -4 -18 -10z"/>
<path d="M1332 5578 c-19 -19 -14 -28 16 -27 24 2 24 2 4 6 -19 4 -21 7 -11
19 14 17 8 19 -9 2z"/>
<path d="M1530 5586 c0 -2 7 -7 16 -10 8 -3 12 -2 9 4 -6 10 -25 14 -25 6z"/>
<path d="M1007 5558 c2 -5 10 -8 18 -8 8 0 16 3 18 8 3 4 -5 7 -18 7 -13 0
-21 -3 -18 -7z"/>
<path d="M1518 5558 c5 -5 16 -8 23 -6 8 3 3 7 -10 11 -17 4 -21 3 -13 -5z"/>
<path d="M1675 5560 c-16 -7 -17 -9 -3 -9 9 -1 20 4 23 9 7 11 7 11 -20 0z"/>
<path d="M900 5171 c0 -14 -6 -17 -24 -14 -32 7 -53 -29 -37 -63 8 -19 18 -23
46 -22 l35 1 0 59 c0 32 -4 58 -10 58 -5 0 -10 -8 -10 -19z m-2 -59 c3 -16 -2
-22 -17 -22 -24 0 -35 15 -27 36 9 23 40 13 44 -14z"/>
<path d="M1665 5180 c3 -5 10 -10 16 -10 5 0 9 5 9 10 0 6 -7 10 -16 10 -8 0
-12 -4 -9 -10z"/>
<path d="M1710 5130 c0 -33 4 -60 10 -60 6 0 10 27 10 60 0 33 -4 60 -10 60
-6 0 -10 -27 -10 -60z"/>
<path d="M737 5128 c-9 -28 -14 -54 -10 -57 3 -4 8 0 10 7 6 14 49 16 58 2 3
-5 10 -10 15 -10 15 0 -26 105 -41 108 -10 2 -21 -15 -32 -50z m43 -4 c0 -8
-6 -14 -14 -14 -9 0 -12 7 -9 20 6 22 23 18 23 -6z"/>
<path d="M1230 5125 c0 -54 0 -55 30 -55 17 0 30 5 30 10 0 6 -9 10 -20 10
-28 0 -26 30 3 31 l22 0 -22 9 c-13 5 -23 14 -23 20 0 6 10 15 23 20 20 8 19
9 -10 9 l-33 1 0 -55z"/>
<path d="M1410 5125 c0 -59 16 -76 23 -22 l4 32 13 -32 c8 -18 18 -33 22 -33
4 0 14 15 22 33 l14 32 1 -32 c2 -57 21 -36 21 22 0 66 -14 71 -39 13 l-19
-43 -17 43 c-25 61 -45 55 -45 -13z"/>
<path d="M950 5113 c0 -24 5 -43 10 -43 6 0 10 13 10 29 0 17 5 33 10 36 16
10 11 21 -10 21 -17 0 -20 -7 -20 -43z"/>
<path d="M1022 5148 c-7 -7 -12 -21 -12 -33 0 -41 45 -60 70 -30 11 13 8 14
-19 9 -20 -4 -31 -3 -31 5 0 6 14 11 30 11 18 0 30 5 30 13 0 18 -21 37 -40
37 -9 0 -21 -5 -28 -12z m48 -18 c0 -5 -9 -10 -20 -10 -11 0 -20 5 -20 10 0 6
9 10 20 10 11 0 20 -4 20 -10z"/>
<path d="M1113 5144 c-4 -11 2 -23 18 -36 l24 -20 -29 7 c-26 6 -28 5 -16 -10
17 -20 54 -16 58 7 2 12 -6 21 -22 28 -34 12 -34 24 0 16 19 -5 25 -3 22 6 -7
20 -47 22 -55 2z"/>
<path d="M1562 5148 c-16 -16 -15 -53 1 -66 7 -6 27 -10 45 -10 31 1 32 3 32
43 0 40 -1 42 -33 43 -19 1 -39 -4 -45 -10z m56 -31 c4 -20 -25 -34 -40 -19
-15 15 -1 44 19 40 10 -2 19 -11 21 -21z"/>
<path d="M1670 5116 c0 -25 5 -46 10 -46 6 0 10 18 10 39 0 22 -4 43 -10 46
-6 4 -10 -12 -10 -39z"/>
<path d="M1333 5123 c9 -2 25 -2 35 0 9 3 1 5 -18 5 -19 0 -27 -2 -17 -5z"/>
<path d="M711 4866 c-44 -24 -50 -51 -51 -208 0 -161 7 -191 51 -214 24 -12
1099 -14 7848 -14 6042 0 7826 3 7846 12 47 21 55 53 55 213 0 160 -8 192 -55
213 -40 19 -15660 17 -15694 -2z m15710 -25 l29 -29 0 -157 0 -157 -29 -29
-29 -29 -7832 0 -7832 0 -29 29 -29 29 0 157 0 157 29 29 29 29 7832 0 7832 0
29 -29z"/>
<path d="M820 4660 l0 -50 38 2 c36 1 36 1 5 5 -43 6 -47 40 -5 46 l27 4 -27
2 c-17 0 -28 7 -28 15 0 8 12 17 28 19 25 4 25 4 -5 6 l-33 1 0 -50z"/>
<path d="M1028 4663 c7 -65 12 -67 12 -5 0 29 -4 52 -9 52 -5 0 -6 -21 -3 -47z"/>
<path d="M1173 4660 c0 -30 2 -43 4 -27 2 15 2 39 0 55 -2 15 -4 2 -4 -28z"/>
<path d="M1088 4673 c7 -3 16 -2 19 1 4 3 -2 6 -13 5 -11 0 -14 -3 -6 -6z"/>
<path d="M1143 4645 c0 -22 2 -30 4 -17 2 12 2 30 0 40 -3 9 -5 -1 -4 -23z"/>
<path d="M1085 4650 c-16 -7 -17 -9 -3 -9 9 -1 20 4 23 9 7 11 7 11 -20 0z"/>
<path d="M995 4629 c-4 -6 -5 -12 -2 -15 2 -3 7 2 10 11 7 17 1 20 -8 4z"/>
<path d="M1029 4218 c-8 -72 13 -125 23 -58 6 37 -2 90 -12 90 -4 0 -9 -15
-11 -32z"/>
<path d="M720 4185 c0 -30 5 -55 10 -55 6 0 10 11 10 25 0 20 5 25 25 25 20 0
25 -5 25 -25 0 -14 5 -25 10 -25 6 0 10 25 10 55 0 30 -4 55 -10 55 -5 0 -10
-12 -10 -26 0 -21 -4 -25 -22 -22 -15 2 -24 11 -26 26 -7 44 -22 21 -22 -33z"/>
<path d="M839 4198 c-19 -35 3 -68 46 -66 34 1 35 2 35 43 0 41 -1 42 -35 43
-26 1 -37 -4 -46 -20z m59 -26 c3 -16 -2 -22 -17 -22 -24 0 -35 15 -27 36 9
23 40 13 44 -14z"/>
<path d="M953 4209 c-14 -14 -6 -39 12 -39 8 0 17 -5 21 -11 5 -9 -1 -10 -21
-5 -25 6 -27 6 -15 -9 17 -20 54 -16 58 7 2 12 -6 21 -22 28 -34 12 -34 24 0
16 19 -5 25 -3 22 6 -6 17 -40 22 -55 7z"/>
<path d="M1086 4204 c-19 -18 -20 -28 -6 -55 20 -37 80 -18 80 26 0 42 -44 59
-74 29z m52 -27 c4 -20 -25 -34 -40 -19 -15 15 -1 44 19 40 10 -2 19 -11 21
-21z"/>
<path d="M711 3926 c-44 -24 -50 -51 -51 -208 0 -161 7 -191 51 -214 24 -12
1099 -14 7848 -14 6042 0 7826 3 7846 12 47 21 55 53 55 213 0 160 -8 192 -55
213 -40 19 -15660 17 -15694 -2z m15710 -25 l29 -29 0 -157 0 -157 -29 -29
-29 -29 -7832 0 -7832 0 -29 29 -29 29 0 157 0 157 29 29 29 29 7832 0 7832 0
29 -29z"/>
<path d="M1352 3740 c0 -19 2 -27 5 -17 2 9 2 25 0 35 -3 9 -5 1 -5 -18z"/>
<path d="M2079 3745 c-3 -17 -2 -41 1 -55 6 -24 7 -24 11 5 3 17 2 41 -1 55
-6 24 -7 24 -11 -5z"/>
<path d="M1023 3705 c0 -22 2 -30 4 -17 2 12 2 30 0 40 -3 9 -5 -1 -4 -23z"/>
<path d="M1080 3736 c0 -2 7 -7 16 -10 8 -3 12 -2 9 4 -6 10 -25 14 -25 6z"/>
<path d="M1258 3733 c7 -3 16 -2 19 1 4 3 -2 6 -13 5 -11 0 -14 -3 -6 -6z"/>
<path d="M1315 3729 c-11 -16 -1 -19 13 -3 7 8 8 14 3 14 -5 0 -13 -5 -16 -11z"/>
<path d="M1393 3733 c9 -2 23 -2 30 0 6 3 -1 5 -18 5 -16 0 -22 -2 -12 -5z"/>
<path d="M1490 3736 c0 -2 9 -6 20 -9 11 -3 18 -1 14 4 -5 9 -34 13 -34 5z"/>
<path d="M1660 3736 c0 -2 9 -6 20 -9 11 -3 18 -1 14 4 -5 9 -34 13 -34 5z"/>
<path d="M1946 3731 c-3 -5 2 -7 13 -4 16 4 20 -1 24 -29 l5 -33 -2 35 c-1 34
-26 54 -40 31z"/>
<path d="M2015 3730 c-8 -14 3 -30 21 -30 8 0 14 -5 14 -11 0 -7 -9 -9 -21 -6
-16 4 -19 3 -11 -5 12 -12 42 -4 42 13 0 6 -9 13 -20 16 -25 7 -26 20 -2 26
15 4 15 5 0 6 -9 0 -20 -3 -23 -9z"/>
<path d="M2115 3730 c-4 -6 -4 -14 -1 -17 3 -4 6 -1 6 5 0 7 7 12 15 12 9 0
15 -9 15 -25 0 -25 -23 -35 -33 -15 -3 6 -4 5 -3 -2 2 -7 11 -13 22 -13 14 0
19 7 19 30 0 31 -26 47 -40 25z"/>
<path d="M991 3704 c0 -11 3 -14 6 -6 3 7 2 16 -1 19 -3 4 -6 -2 -5 -13z"/>
<path d="M1651 3704 c0 -11 3 -14 6 -6 3 7 2 16 -1 19 -3 4 -6 -2 -5 -13z"/>
<path d="M1248 3703 c7 -3 16 -2 19 1 4 3 -2 6 -13 5 -11 0 -14 -3 -6 -6z"/>
<path d="M1392 3698 c-19 -19 -14 -28 16 -27 24 2 24 2 4 6 -19 4 -21 7 -11
19 14 17 8 19 -9 2z"/>
<path d="M1500 3706 c0 -2 7 -7 16 -10 8 -3 12 -2 9 4 -6 10 -25 14 -25 6z"/>
<path d="M1763 3703 c9 -2 25 -2 35 0 9 3 1 5 -18 5 -19 0 -27 -2 -17 -5z"/>
<path d="M1945 3700 c-8 -13 3 -30 18 -30 7 0 6 4 -3 10 -13 9 -13 11 0 20 9
6 10 10 3 10 -6 0 -15 -4 -18 -10z"/>
<path d="M1310 3691 c0 -10 19 -25 25 -20 1 2 -3 10 -11 17 -8 7 -14 8 -14 3z"/>
<path d="M958 3678 c5 -5 16 -8 23 -6 8 3 3 7 -10 11 -17 4 -21 3 -13 -5z"/>
<path d="M1090 3680 c-9 -6 -10 -10 -3 -10 6 0 15 5 18 10 8 12 4 12 -15 0z"/>
<path d="M1488 3678 c5 -5 16 -8 23 -6 8 3 3 7 -10 11 -17 4 -21 3 -13 -5z"/>
<path d="M1675 3680 c-16 -7 -17 -9 -3 -9 9 -1 20 4 23 9 7 11 7 11 -20 0z"/>
<path d="M1778 3673 c7 -3 16 -2 19 1 4 3 -2 6 -13 5 -11 0 -14 -3 -6 -6z"/>
<path d="M1460 3310 c-8 -5 -12 -11 -9 -14 2 -3 11 -1 19 4 8 5 12 11 9 14 -2
3 -11 1 -19 -4z"/>
<path d="M1120 3300 c0 -5 5 -10 10 -10 6 0 10 5 10 10 0 6 -4 10 -10 10 -5 0
-10 -4 -10 -10z"/>
<path d="M1390 3291 c0 -14 -5 -18 -20 -14 -26 7 -50 -13 -50 -42 0 -30 19
-44 58 -43 l32 1 0 59 c0 32 -4 58 -10 58 -5 0 -10 -9 -10 -19z m-2 -54 c4
-20 -25 -34 -40 -19 -15 15 -1 44 19 40 10 -2 19 -11 21 -21z"/>
<path d="M1550 3250 c0 -63 16 -84 22 -28 2 22 9 34 21 36 14 3 17 -4 17 -32
0 -20 5 -36 11 -36 6 0 9 17 7 43 -3 39 -5 42 -30 42 -20 -1 -28 4 -28 17 0
10 -4 18 -10 18 -6 0 -10 -27 -10 -60z"/>
<path d="M1849 3278 c-8 -72 13 -125 23 -58 6 37 -2 90 -12 90 -4 0 -9 -15
-11 -32z"/>
<path d="M720 3246 c0 -31 5 -56 10 -56 6 0 10 8 10 18 0 11 12 22 31 29 24 9
30 17 27 35 -2 19 -10 24 -40 26 l-38 3 0 -55z m60 18 c0 -8 -9 -14 -20 -14
-19 0 -27 19 -14 33 10 9 34 -4 34 -19z"/>
<path d="M920 3282 c-10 -12 -11 -17 -2 -20 7 -2 12 -17 12 -32 0 -29 16 -48
28 -35 4 4 1 10 -5 12 -17 6 -17 50 -1 55 10 4 9 8 -2 20 -14 13 -17 13 -30 0z"/>
<path d="M830 3266 c-28 -35 11 -93 48 -70 35 22 22 84 -18 84 -10 0 -23 -7
-30 -14z m50 -31 c0 -18 -5 -25 -20 -25 -15 0 -20 7 -20 25 0 18 5 25 20 25
15 0 20 -7 20 -25z"/>
<path d="M985 3244 c4 -21 9 -42 11 -46 10 -16 24 -7 30 17 7 28 24 24 24 -6
0 -34 26 -20 38 20 14 46 15 51 3 51 -5 0 -12 -15 -16 -32 l-7 -33 -9 33 c-12
40 -28 41 -35 2 -7 -32 -24 -32 -24 0 0 10 -5 22 -11 26 -9 5 -10 -4 -4 -32z"/>
<path d="M1120 3235 c0 -25 5 -45 10 -45 6 0 10 20 10 45 0 25 -4 45 -10 45
-5 0 -10 -20 -10 -45z"/>
<path d="M1172 3268 c-7 -7 -12 -21 -12 -33 0 -41 45 -60 70 -30 11 13 8 14
-19 9 -20 -4 -31 -3 -31 5 0 6 14 11 30 11 18 0 30 5 30 13 0 18 -21 37 -40
37 -9 0 -21 -5 -28 -12z m48 -18 c0 -5 -9 -10 -20 -10 -11 0 -20 5 -20 10 0 6
9 10 20 10 11 0 20 -4 20 -10z"/>
<path d="M1260 3234 c0 -24 5 -44 10 -44 6 0 10 14 10 30 0 18 6 33 15 36 23
9 18 19 -10 20 -23 2 -25 -1 -25 -42z"/>
<path d="M1430 3270 c0 -5 9 -10 21 -10 l20 0 -20 -26 c-28 -36 -26 -44 9 -44
17 0 30 5 30 10 0 6 -7 10 -16 10 -15 0 -15 2 0 25 23 35 20 45 -14 45 -16 0
-30 -4 -30 -10z"/>
<path d="M1662 3268 c-16 -16 -15 -53 1 -66 7 -6 27 -10 45 -10 31 1 32 3 32
43 0 40 -1 42 -33 43 -19 1 -39 -4 -45 -10z m56 -31 c4 -20 -25 -34 -40 -19
-15 15 -1 44 19 40 10 -2 19 -11 21 -21z"/>
<path d="M1773 3269 c-14 -14 -6 -39 12 -39 8 0 17 -5 21 -11 5 -9 -1 -10 -21
-5 -25 6 -27 6 -15 -9 17 -20 54 -16 58 7 2 12 -6 21 -22 28 -34 12 -34 24 0
16 19 -5 25 -3 22 6 -6 17 -40 22 -55 7z"/>
<path d="M1906 3264 c-19 -18 -20 -28 -6 -55 20 -37 80 -18 80 26 0 42 -44 59
-74 29z m52 -27 c4 -20 -25 -34 -40 -19 -15 15 -1 44 19 40 10 -2 19 -11 21
-21z"/>
<path d="M711 2986 c-44 -24 -50 -51 -51 -208 0 -161 7 -191 51 -214 24 -12
1099 -14 7848 -14 6042 0 7826 3 7846 12 47 21 55 53 55 213 0 160 -8 192 -55
213 -40 19 -15660 17 -15694 -2z m15710 -25 l29 -29 0 -157 0 -157 -29 -29
-29 -29 -7832 0 -7832 0 -29 29 -29 29 0 157 0 157 29 29 29 29 7832 0 7832 0
29 -29z"/>
<path d="M821 2778 c1 -29 4 -43 6 -31 2 13 13 24 26 26 l22 4 -22 2 c-16 1
-23 7 -23 20 0 12 8 21 23 24 19 4 18 4 -5 6 -27 1 -28 0 -27 -51z"/>
<path d="M1313 2780 c0 -30 2 -43 4 -27 2 15 2 39 0 55 -2 15 -4 2 -4 -28z"/>
<path d="M1823 2780 c0 -30 2 -43 4 -27 2 15 2 39 0 55 -2 15 -4 2 -4 -28z"/>
<path d="M915 2790 c-4 -6 -4 -14 -1 -17 3 -4 6 -1 6 5 0 7 7 12 15 12 9 0 15
-9 15 -25 0 -25 -23 -35 -33 -15 -3 6 -4 5 -3 -2 2 -7 11 -13 22 -13 14 0 19
7 19 30 0 31 -26 47 -40 25z"/>
<path d="M1155 2790 c-3 -6 1 -7 9 -4 18 7 21 14 7 14 -6 0 -13 -4 -16 -10z"/>
<path d="M1223 2765 c0 -22 2 -30 4 -17 2 12 2 30 0 40 -3 9 -5 -1 -4 -23z"/>
<path d="M1275 2790 c-3 -6 1 -7 9 -4 18 7 21 14 7 14 -6 0 -13 -4 -16 -10z"/>
<path d="M1353 2793 c9 -2 14 -9 11 -15 -4 -7 -2 -8 4 -4 20 12 13 26 -10 25
-18 -1 -19 -2 -5 -6z"/>
<path d="M1445 2790 c-8 -14 3 -30 21 -30 8 0 14 -5 14 -11 0 -7 -9 -9 -21 -6
-16 4 -19 3 -11 -5 12 -12 42 -4 42 13 0 6 -9 13 -20 16 -25 7 -26 20 -2 26
15 4 15 5 0 6 -9 0 -20 -3 -23 -9z"/>
<path d="M1615 2790 c-3 -6 1 -7 9 -4 18 7 21 14 7 14 -6 0 -13 -4 -16 -10z"/>
<path d="M1683 2760 c0 -25 2 -35 4 -22 2 12 2 32 0 45 -2 12 -4 2 -4 -23z"/>
<path d="M1717 2793 c-3 -5 5 -8 18 -8 13 0 21 3 18 8 -2 4 -10 7 -18 7 -8 0
-16 -3 -18 -7z"/>
<path d="M1847 2793 c6 -4 13 -22 16 -38 4 -27 5 -27 3 4 0 21 -7 36 -16 38
-10 3 -11 2 -3 -4z"/>
<path d="M1918 2793 c7 -3 16 -2 19 1 4 3 -2 6 -13 5 -11 0 -14 -3 -6 -6z"/>
<path d="M2075 2790 c-3 -6 1 -7 9 -4 18 7 21 14 7 14 -6 0 -13 -4 -16 -10z"/>
<path d="M1170 2770 l-25 -8 28 -1 c15 -1 27 4 27 9 0 6 -1 10 -2 9 -2 -1 -14
-5 -28 -9z"/>
<path d="M1651 2764 c0 -11 3 -14 6 -6 3 7 2 16 -1 19 -3 4 -6 -2 -5 -13z"/>
<path d="M1915 2770 c-16 -7 -17 -9 -3 -9 9 -1 20 4 23 9 7 11 7 11 -20 0z"/>
<path d="M1978 2768 c5 -5 16 -8 23 -6 8 3 3 7 -10 11 -17 4 -21 3 -13 -5z"/>
<path d="M2111 2764 c0 -11 3 -14 6 -6 3 7 2 16 -1 19 -3 4 -6 -2 -5 -13z"/>
<path d="M1723 2763 c9 -2 23 -2 30 0 6 3 -1 5 -18 5 -16 0 -22 -2 -12 -5z"/>
<path d="M1157 2738 c2 -5 10 -8 18 -8 8 0 16 3 18 8 3 4 -5 7 -18 7 -13 0
-21 -3 -18 -7z"/>
<path d="M1277 2739 c7 -7 15 -10 18 -7 3 3 -2 9 -12 12 -14 6 -15 5 -6 -5z"/>
<path d="M1617 2739 c7 -7 15 -10 18 -7 3 3 -2 9 -12 12 -14 6 -15 5 -6 -5z"/>
<path d="M1717 2738 c2 -5 10 -8 18 -8 8 0 16 3 18 8 3 4 -5 7 -18 7 -13 0
-21 -3 -18 -7z"/>
<path d="M2077 2739 c7 -7 15 -10 18 -7 3 3 -2 9 -12 12 -14 6 -15 5 -6 -5z"/>
<path d="M1343 2733 c9 -2 23 -2 30 0 6 3 -1 5 -18 5 -16 0 -22 -2 -12 -5z"/>
<path d="M1988 2733 c7 -3 16 -2 19 1 4 3 -2 6 -13 5 -11 0 -14 -3 -6 -6z"/>
<path d="M725 2051 c-11 -5 -29 -19 -40 -31 -18 -20 -20 -36 -20 -186 l0 -164
28 -27 27 -28 6960 0 6960 0 27 28 28 27 0 165 0 165 -28 27 -27 28 -6948 2
c-3821 1 -6956 -2 -6967 -6z m6680 -201 c1 -19 4 -41 8 -48 14 -22 -21 -13
-37 10 l-16 22 0 -22 c0 -13 -6 -22 -15 -22 -11 0 -15 12 -15 51 l0 50 38 -3
c35 -3 37 -5 37 -38z m125 30 c0 -5 -7 -10 -15 -10 -8 0 -15 5 -15 10 0 6 7
10 15 10 8 0 15 -4 15 -10z m430 0 c0 -5 -7 -10 -15 -10 -8 0 -15 5 -15 10 0
6 7 10 15 10 8 0 15 -4 15 -10z m-184 -21 c32 -1 64 -5 71 -10 7 -7 14 -6 18
1 8 14 42 13 51 -2 5 -8 0 -9 -14 -6 -18 5 -22 2 -22 -19 0 -20 3 -23 21 -18
15 5 19 4 15 -4 -9 -15 -39 -14 -54 1 -9 9 -12 9 -12 0 0 -18 -60 -15 -67 4
-3 9 0 20 8 25 8 5 11 9 7 9 -3 0 -13 3 -22 6 -13 5 -16 -1 -16 -25 0 -29 -3
-31 -34 -31 -31 0 -34 3 -38 35 -4 36 10 64 22 45 4 -6 33 -11 66 -11z m-288
-21 c2 -13 -3 -18 -17 -18 -12 0 -21 -4 -21 -9 0 -5 10 -7 23 -4 17 4 19 3 11
-6 -29 -31 -76 4 -60 45 8 21 60 14 64 -8z m42 12 c0 -6 7 -6 19 1 10 7 26 9
35 6 23 -9 20 -37 -4 -37 -11 0 -20 -4 -20 -9 0 -5 10 -7 22 -3 14 3 19 2 14
-6 -10 -16 -43 -15 -52 0 -6 9 -10 5 -14 -12 -3 -14 -12 -26 -20 -28 -12 -2
-14 8 -12 48 3 35 8 50 18 50 8 0 14 -5 14 -10z m140 -1 c0 -6 -8 -8 -17 -5
-12 4 -9 -1 6 -12 13 -11 21 -24 17 -31 -9 -14 -53 -14 -62 1 -5 8 0 9 17 5
l24 -6 -24 18 c-13 10 -21 23 -17 30 9 14 56 15 56 0z m292 -10 c3 -19 4 -19
23 -5 l20 16 -20 -6 c-16 -6 -17 -4 -9 5 22 23 49 8 52 -28 3 -33 3 -33 -32
-29 -27 3 -36 0 -39 -14 -3 -10 -11 -18 -19 -18 -9 0 -12 13 -10 50 3 33 8 50
17 50 8 0 15 -9 17 -21z"/>
<path d="M7360 1860 c0 -13 5 -20 13 -17 6 2 12 10 12 17 0 7 -6 15 -12 18 -8
2 -13 -5 -13 -18z"/>
<path d="M7710 1825 c0 -14 5 -25 10 -25 6 0 10 11 10 25 0 14 -4 25 -10 25
-5 0 -10 -11 -10 -25z"/>
<path d="M7560 1840 c0 -5 5 -10 11 -10 5 0 7 5 4 10 -3 6 -8 10 -11 10 -2 0
-4 -4 -4 -10z"/>
</g>
</svg>
