<?xml version="1.0" standalone="no"?>
<!DOCTYPE svg PUBLIC "-//W3C//DTD SVG 20010904//EN"
 "http://www.w3.org/TR/2001/REC-SVG-20010904/DTD/svg10.dtd">
<svg version="1.0" xmlns="http://www.w3.org/2000/svg"
 width="1755.000000pt" height="773.000000pt" viewBox="0 0 1755.000000 773.000000"
 preserveAspectRatio="xMidYMid meet">

<g transform="translate(0.000000,773.000000) scale(0.100000,-0.100000)"
fill="#000000" stroke="none">
<path d="M13000 4666 l0 -2406 -4541 0 -4541 0 6 -47 c4 -27 19 -73 34 -103
24 -47 36 -59 87 -85 l59 -30 4491 0 4491 0 59 30 c52 27 63 38 90 90 l30 59
0 2356 0 2356 -30 59 c-26 51 -38 63 -85 87 -30 15 -76 30 -102 34 l-48 6 0
-2406z"/>
<path d="M4977 6643 c-14 -14 -6 -42 14 -48 30 -10 57 18 39 39 -13 16 -42 21
-53 9z"/>
<path d="M6040 6634 c-18 -21 9 -49 39 -39 25 7 28 40 5 49 -23 9 -30 8 -44
-10z"/>
<path d="M6440 6634 c-18 -21 9 -49 39 -39 25 7 28 40 5 49 -23 9 -30 8 -44
-10z"/>
<path d="M4130 6615 c0 -24 2 -25 65 -25 36 0 65 -3 65 -6 0 -4 -31 -51 -70
-105 -38 -54 -70 -105 -70 -113 0 -14 17 -16 115 -16 l115 0 0 25 c0 24 -2 25
-70 25 -38 0 -70 2 -70 5 0 2 32 49 70 104 39 55 70 107 70 116 0 13 -18 15
-110 15 l-110 0 0 -25z"/>
<path d="M5520 6600 c-16 -4 -26 -14 -28 -28 -2 -12 -10 -22 -18 -22 -8 0 -14
-9 -14 -20 0 -11 7 -20 15 -20 12 0 15 -13 15 -60 0 -47 4 -64 21 -81 28 -28
83 -23 87 8 2 16 -3 22 -20 25 -21 3 -23 8 -23 53 0 44 3 50 23 53 32 5 30 42
-2 42 -20 0 -25 6 -28 28 -3 24 -6 27 -28 22z"/>
<path d="M4413 6543 c-14 -3 -23 -12 -23 -24 0 -16 5 -18 44 -13 29 4 46 2 51
-6 10 -15 -12 -30 -45 -30 -39 0 -70 -27 -70 -59 0 -52 53 -77 98 -45 20 14
22 14 22 0 0 -11 10 -16 31 -16 l31 0 -4 80 c-2 56 -8 84 -19 95 -17 17 -78
27 -116 18z m63 -142 c-13 -12 -20 -13 -34 -5 -26 17 -20 38 13 44 35 6 46
-13 21 -39z"/>
<path d="M4600 6450 l0 -100 30 0 30 0 0 63 c0 68 10 87 47 87 18 0 23 6 23
25 0 30 -24 33 -52 8 -17 -15 -18 -15 -18 0 0 12 -9 17 -30 17 l-30 0 0 -100z"/>
<path d="M4782 6525 c-28 -23 -32 -33 -32 -76 0 -55 20 -84 66 -95 39 -10 98
7 102 30 3 16 -1 17 -35 11 -31 -5 -44 -2 -64 14 l-24 20 68 1 67 0 0 34 c0
47 -27 76 -76 83 -33 4 -45 1 -72 -22z m88 -30 c18 -21 9 -27 -36 -23 -36 3
-37 4 -20 21 21 21 40 22 56 2z"/>
<path d="M4968 6433 c-3 -114 -4 -118 -25 -121 -17 -3 -23 -10 -23 -28 0 -20
5 -24 30 -24 19 0 40 9 55 25 24 23 25 30 25 145 l0 120 -30 0 -29 0 -3 -117z"/>
<path d="M5112 6525 c-28 -23 -32 -33 -32 -76 0 -55 20 -84 66 -95 39 -10 98
7 102 30 3 16 -1 17 -35 11 -31 -5 -44 -2 -64 14 l-24 20 68 1 67 0 0 34 c0
47 -27 76 -76 83 -33 4 -45 1 -72 -22z m88 -30 c18 -21 9 -27 -36 -23 -36 3
-37 4 -20 21 21 21 40 22 56 2z"/>
<path d="M5322 6538 c-26 -13 -38 -49 -24 -74 6 -10 25 -23 44 -30 49 -16 43
-39 -9 -37 -36 1 -43 -1 -43 -17 0 -50 133 -36 146 17 9 35 -2 53 -46 70 -22
9 -40 20 -40 25 0 16 31 21 56 10 22 -11 24 -9 24 12 0 36 -57 48 -108 24z"/>
<path d="M5640 6450 l0 -100 30 0 30 0 0 63 c0 65 11 87 42 87 13 0 18 8 18
25 0 29 -21 33 -44 9 -15 -14 -16 -14 -16 0 0 11 -9 16 -30 16 l-30 0 0 -100z"/>
<path d="M5790 6486 c0 -79 12 -113 45 -128 19 -9 31 -8 53 3 15 7 30 15 35
17 4 2 7 -3 7 -12 0 -10 9 -16 25 -16 l25 0 0 100 0 100 -25 0 c-23 0 -25 -3
-25 -49 0 -69 -14 -101 -44 -101 -30 0 -36 16 -36 91 0 59 0 59 -30 59 l-30 0
0 -64z"/>
<path d="M6040 6446 c0 -118 -4 -136 -31 -136 -14 0 -19 -7 -19 -25 0 -33 39
-34 77 -1 27 24 28 27 32 145 l3 121 -31 0 -31 0 0 -104z"/>
<path d="M6280 6537 c-19 -10 -25 -20 -25 -47 0 -31 4 -37 43 -55 52 -24 49
-41 -7 -38 -34 1 -41 -1 -41 -17 0 -24 36 -35 84 -26 78 15 87 85 15 114 -48
19 -46 38 5 35 29 -2 36 1 36 16 0 32 -62 42 -110 18z"/>
<path d="M6440 6450 l0 -100 30 0 30 0 0 100 0 100 -30 0 -30 0 0 -100z"/>
<path d="M6587 6534 c-72 -39 -57 -161 23 -179 25 -6 28 -9 18 -25 -9 -14 -9
-22 1 -34 17 -20 51 -21 51 -1 0 8 -7 15 -15 15 -8 0 -15 4 -15 9 0 15 30 41
46 41 8 0 14 9 14 20 0 18 -4 20 -34 15 -34 -7 -76 7 -76 25 0 6 29 10 65 10
l65 0 0 31 c0 40 -48 89 -87 89 -15 -1 -41 -8 -56 -16z m81 -46 c3 -15 -4 -18
-32 -18 -38 0 -44 8 -24 28 17 17 52 11 56 -10z"/>
<path d="M6773 6543 c-21 -8 -15 -41 8 -48 30 -10 57 18 39 39 -13 16 -25 18
-47 9z"/>
<path d="M6773 6403 c-21 -8 -15 -41 8 -48 30 -10 57 18 39 39 -13 16 -25 18
-47 9z"/>
<path d="M4500 5745 c0 -33 -1 -34 -29 -29 -22 5 -32 1 -45 -17 -21 -31 -20
-62 2 -82 22 -20 43 -22 60 -5 9 9 12 9 12 0 0 -7 7 -12 15 -12 12 0 15 17 15
90 0 73 -3 90 -15 90 -10 0 -15 -11 -15 -35z m-5 -85 c0 -16 -6 -26 -19 -28
-23 -5 -35 13 -28 40 7 30 47 20 47 -12z"/>
<path d="M4695 5770 c-8 -14 3 -30 21 -30 8 0 14 9 14 20 0 21 -24 28 -35 10z"/>
<path d="M5515 5770 c-8 -14 3 -30 21 -30 8 0 14 9 14 20 0 21 -24 28 -35 10z"/>
<path d="M5830 5760 c0 -11 7 -20 15 -20 8 0 15 9 15 20 0 11 -7 20 -15 20 -8
0 -15 -9 -15 -20z"/>
<path d="M6040 5746 c0 -29 -3 -33 -23 -29 -32 6 -57 -21 -57 -61 0 -43 14
-53 73 -54 l47 0 0 89 c0 82 -1 89 -20 89 -16 0 -20 -7 -20 -34z m-2 -83 c-3
-31 -34 -44 -44 -19 -9 24 3 46 26 46 17 0 21 -5 18 -27z"/>
<path d="M4140 5685 c0 -69 3 -85 15 -85 10 0 15 10 15 30 0 24 4 30 21 30 39
0 59 19 59 55 0 40 -20 55 -74 55 l-36 0 0 -85z m75 30 c0 -13 -8 -21 -22 -23
-19 -3 -23 1 -23 23 0 22 4 26 23 23 14 -2 22 -10 22 -23z"/>
<path d="M5617 5764 c-8 -8 1 -24 14 -24 5 0 9 7 9 15 0 15 -12 20 -23 9z"/>
<path d="M4285 5706 c-42 -30 -14 -106 40 -106 34 0 65 28 65 60 0 49 -63 77
-105 46z m69 -31 c8 -23 -4 -45 -25 -45 -11 0 -22 7 -25 15 -9 23 3 45 25 45
10 0 21 -7 25 -15z"/>
<path d="M4583 5713 c-27 -10 -13 -30 20 -26 26 3 28 1 12 -6 -11 -5 -28 -12
-37 -15 -23 -7 -24 -54 -2 -63 9 -3 25 -1 35 6 12 7 19 7 19 1 0 -5 7 -10 15
-10 19 0 21 90 3 108 -12 12 -43 15 -65 5z m47 -63 c0 -12 -28 -25 -36 -17 -9
9 6 27 22 27 8 0 14 -5 14 -10z"/>
<path d="M4700 5656 c0 -44 -5 -69 -15 -80 -19 -19 -19 -36 -1 -36 33 0 46 30
46 106 0 59 -3 74 -15 74 -12 0 -15 -14 -15 -64z"/>
<path d="M4777 5713 c-15 -14 -5 -23 26 -24 l32 -1 -32 -11 c-47 -17 -57 -30
-44 -56 13 -23 40 -28 59 -9 7 7 12 8 12 2 0 -5 -5 -15 -11 -21 -13 -13 -5
-43 11 -43 7 0 9 8 5 20 -4 13 -1 22 9 26 25 10 22 100 -3 114 -22 11 -54 13
-64 3z m51 -65 c-7 -19 -38 -22 -38 -4 0 10 9 16 21 16 12 0 19 -5 17 -12z"/>
<path d="M4912 5704 c-45 -31 -18 -108 36 -102 36 4 39 26 5 30 -22 2 -28 8
-28 28 0 20 6 26 28 28 33 4 37 32 4 32 -12 0 -33 -7 -45 -16z"/>
<path d="M5070 5630 c0 -83 1 -90 20 -90 16 0 20 7 20 34 0 29 3 33 23 29 35
-7 59 22 55 65 -4 43 -29 63 -58 44 -12 -7 -20 -8 -20 -2 0 5 -9 10 -20 10
-19 0 -20 -7 -20 -90z m85 30 c0 -18 -6 -26 -22 -28 -18 -3 -23 1 -23 21 0 28
9 39 30 35 9 -2 15 -14 15 -28z"/>
<path d="M5237 5702 c-21 -23 -22 -66 -1 -86 35 -35 104 -6 104 44 0 52 -69
80 -103 42z m68 -42 c0 -18 -6 -26 -23 -28 -24 -4 -38 18 -28 44 3 9 15 14 28
12 17 -2 23 -10 23 -28z"/>
<path d="M5370 5660 c0 -53 2 -60 20 -60 17 0 20 7 20 46 0 38 3 45 18 42 12
-2 18 -15 20 -46 2 -28 8 -42 18 -42 10 0 14 14 14 55 0 30 -3 56 -7 56 -5 1
-29 3 -55 5 l-48 3 0 -59z"/>
<path d="M5520 5660 c0 -47 3 -60 15 -60 12 0 15 13 15 60 0 47 -3 60 -15 60
-12 0 -15 -13 -15 -60z"/>
<path d="M5580 5705 c0 -9 10 -15 26 -15 l26 0 -31 -35 c-17 -20 -31 -40 -31
-45 0 -6 23 -10 50 -10 38 0 50 4 50 15 0 9 -10 15 -26 15 l-25 0 25 33 c37
48 33 57 -19 57 -33 0 -45 -4 -45 -15z"/>
<path d="M5710 5700 c-41 -41 -7 -107 51 -98 36 5 36 28 0 28 -17 0 -31 5 -31
10 0 6 16 10 35 10 31 0 35 3 35 25 0 43 -56 59 -90 25z m60 -20 c0 -5 -9 -10
-20 -10 -11 0 -20 5 -20 10 0 6 9 10 20 10 11 0 20 -4 20 -10z"/>
<path d="M5830 5650 c0 -54 -4 -72 -15 -76 -19 -8 -20 -34 -1 -34 33 0 46 30
46 106 0 59 -3 74 -15 74 -12 0 -15 -14 -15 -70z"/>
<path d="M6123 5713 c-24 -9 -13 -23 20 -24 l32 -1 -33 -14 c-40 -17 -50 -40
-29 -62 13 -13 21 -13 42 -4 15 7 25 8 25 2 0 -6 7 -10 15 -10 21 0 21 83 -1
104 -15 16 -46 20 -71 9z m51 -68 c-7 -16 -30 -20 -38 -6 -7 11 4 21 25 21 12
0 16 -5 13 -15z"/>
<path d="M6240 5660 c0 -53 2 -60 20 -60 17 0 20 7 20 46 0 38 3 45 18 42 12
-2 18 -15 20 -46 2 -28 8 -42 18 -42 10 0 14 14 14 55 0 30 -3 56 -7 56 -5 1
-29 3 -55 5 l-48 3 0 -59z"/>
<path d="M6402 5704 c-47 -32 -14 -109 44 -102 39 4 44 28 5 28 -16 0 -33 5
-36 10 -4 6 10 10 34 10 34 0 41 3 41 19 0 24 -26 51 -48 51 -10 0 -28 -7 -40
-16z m53 -24 c4 -6 -5 -10 -20 -10 -15 0 -24 4 -20 10 3 6 12 10 20 10 8 0 17
-4 20 -10z"/>
<path d="M4114 5377 c-2 -7 -3 -116 -2 -242 l3 -230 3180 0 3180 0 0 240 0
240 -3178 3 c-2566 2 -3179 0 -3183 -11z m6356 -232 l0 -235 -3175 0 -3175 0
0 235 0 235 3175 0 3175 0 0 -235z"/>
<path d="M4333 5135 c0 -22 2 -30 4 -17 2 12 2 30 0 40 -3 9 -5 -1 -4 -23z"/>
<path d="M4357 5163 c6 -4 13 -22 16 -38 4 -27 5 -27 3 4 0 21 -7 36 -16 38
-10 3 -11 2 -3 -4z"/>
<path d="M4397 5163 c6 -4 13 -22 16 -38 4 -27 5 -27 3 4 0 21 -7 36 -16 38
-10 3 -11 2 -3 -4z"/>
<path d="M4443 5135 c0 -22 2 -30 4 -17 2 12 2 30 0 40 -3 9 -5 -1 -4 -23z"/>
<path d="M4480 5166 c0 -2 9 -6 20 -9 11 -3 18 -1 14 4 -5 9 -34 13 -34 5z"/>
<path d="M4653 5135 c0 -22 2 -30 4 -17 2 12 2 30 0 40 -3 9 -5 -1 -4 -23z"/>
<path d="M4677 5163 c6 -4 13 -22 16 -38 4 -27 5 -27 3 4 0 21 -7 36 -16 38
-10 3 -11 2 -3 -4z"/>
<path d="M4748 5163 c7 -3 16 -2 19 1 4 3 -2 6 -13 5 -11 0 -14 -3 -6 -6z"/>
<path d="M4813 5163 c9 -2 14 -9 11 -15 -4 -7 -2 -8 4 -4 20 12 13 26 -10 25
-18 -1 -19 -2 -5 -6z"/>
<path d="M4963 5135 c0 -22 2 -30 4 -17 2 12 2 30 0 40 -3 9 -5 -1 -4 -23z"/>
<path d="M5074 5148 l-19 -23 23 19 c12 11 22 21 22 23 0 8 -8 2 -26 -19z"/>
<path d="M5140 5166 c0 -2 7 -7 16 -10 8 -3 12 -2 9 4 -6 10 -25 14 -25 6z"/>
<path d="M4470 5135 c0 -8 9 -10 25 -7 14 2 25 6 25 7 0 1 -11 5 -25 7 -16 3
-25 1 -25 -7z"/>
<path d="M4745 5140 c-16 -7 -17 -9 -3 -9 9 -1 20 4 23 9 7 11 7 11 -20 0z"/>
<path d="M4995 5140 c3 -4 14 -10 25 -13 11 -3 18 -2 15 3 -3 4 -14 10 -25 13
-11 3 -18 2 -15 -3z"/>
<path d="M4495 5110 c-16 -7 -17 -9 -3 -9 9 -1 20 4 23 9 7 11 7 11 -20 0z"/>
<path d="M5150 5110 c-9 -6 -10 -10 -3 -10 6 0 15 5 18 10 8 12 4 12 -15 0z"/>
<path d="M4803 5103 c9 -2 23 -2 30 0 6 3 -1 5 -18 5 -16 0 -22 -2 -12 -5z"/>
<path d="M5008 5103 c7 -3 16 -2 19 1 4 3 -2 6 -13 5 -11 0 -14 -3 -6 -6z"/>
<path d="M4114 4617 c-2 -7 -3 -116 -2 -242 l3 -230 3180 0 3180 0 0 240 0
240 -3178 3 c-2566 2 -3179 0 -3183 -11z m6356 -232 l0 -235 -3175 0 -3175 0
0 235 0 235 3175 0 3175 0 0 -235z"/>
<path d="M4313 4433 c9 -2 25 -2 35 0 9 3 1 5 -18 5 -19 0 -27 -2 -17 -5z"/>
<path d="M4498 4433 c-2 -5 -1 -28 3 -53 l6 -45 1 53 c2 48 -2 63 -10 45z"/>
<path d="M4643 4390 c0 -30 2 -43 4 -27 2 15 2 39 0 55 -2 15 -4 2 -4 -28z"/>
<path d="M4562 4404 c10 -3 19 -19 21 -37 4 -31 5 -31 3 3 -1 27 -5 35 -21 37
-14 1 -15 0 -3 -3z"/>
<path d="M4613 4375 c0 -22 2 -30 4 -17 2 12 2 30 0 40 -3 9 -5 -1 -4 -23z"/>
<path d="M4313 4393 c9 -2 23 -2 30 0 6 3 -1 5 -18 5 -16 0 -22 -2 -12 -5z"/>
<path d="M4388 4373 c7 -3 16 -2 19 1 4 3 -2 6 -13 5 -11 0 -14 -3 -6 -6z"/>
<path d="M4545 4370 c-8 -13 3 -30 18 -30 7 0 6 4 -3 10 -13 9 -13 11 0 20 9
6 10 10 3 10 -6 0 -15 -4 -18 -10z"/>
<path d="M4313 4343 c9 -2 25 -2 35 0 9 3 1 5 -18 5 -19 0 -27 -2 -17 -5z"/>
<path d="M4114 3857 c-2 -7 -3 -116 -2 -242 l3 -230 3180 0 3180 0 0 240 0
240 -3178 3 c-2566 2 -3179 0 -3183 -11z m6356 -232 l0 -235 -3175 0 -3175 0
0 235 0 235 3175 0 3175 0 0 -235z"/>
<path d="M4529 3655 c-3 -17 -2 -41 1 -55 6 -24 7 -24 11 5 3 17 2 41 -1 55
-6 24 -7 24 -11 -5z"/>
<path d="M4412 3644 c10 -3 19 -19 21 -37 4 -31 5 -31 3 3 -1 27 -5 35 -21 37
-14 1 -15 0 -3 -3z"/>
<path d="M4478 3643 c7 -3 16 -2 19 1 4 3 -2 6 -13 5 -11 0 -14 -3 -6 -6z"/>
<path d="M4570 3646 c0 -2 9 -6 20 -9 11 -3 18 -1 14 4 -5 9 -34 13 -34 5z"/>
<path d="M4313 3633 c9 -2 25 -2 35 0 9 3 1 5 -18 5 -19 0 -27 -2 -17 -5z"/>
<path d="M4465 3620 c3 -4 14 -10 25 -13 11 -3 18 -2 15 3 -3 4 -14 10 -25 13
-11 3 -18 2 -15 -3z"/>
<path d="M4561 3614 c0 -11 3 -14 6 -6 3 7 2 16 -1 19 -3 4 -6 -2 -5 -13z"/>
<path d="M4395 3610 c-8 -13 3 -30 18 -30 7 0 6 4 -3 10 -13 9 -13 11 0 20 9
6 10 10 3 10 -6 0 -15 -4 -18 -10z"/>
<path d="M4468 3588 c5 -5 16 -8 23 -6 8 3 3 7 -10 11 -17 4 -21 3 -13 -5z"/>
<path d="M4585 3590 c-16 -7 -17 -9 -3 -9 9 -1 20 4 23 9 7 11 7 11 -20 0z"/>
<path d="M10820 3666 c0 -20 -6 -25 -32 -29 l-33 -4 32 -1 c26 -2 32 -7 36
-29 2 -16 5 -2 6 30 0 31 -1 57 -4 57 -3 0 -5 -11 -5 -24z"/>
<path d="M11532 3635 c1 -47 2 -52 7 -25 8 46 41 56 41 11 0 -18 -6 -31 -15
-34 -11 -4 -10 -4 2 -3 14 1 18 10 18 36 0 28 -4 35 -20 35 -11 0 -23 9 -27
20 -3 11 -6 -7 -6 -40z"/>
<path d="M11903 3635 c0 -33 2 -45 4 -27 2 18 2 45 0 60 -2 15 -4 0 -4 -33z"/>
<path d="M10883 3654 c23 -7 22 -20 -4 -27 -22 -6 -24 -38 -1 -43 7 -1 8 0 2
3 -15 7 -12 33 4 33 8 0 17 -10 19 -22 3 -13 4 -5 4 17 -2 32 -6 40 -22 42
-16 1 -16 1 -2 -3z"/>
<path d="M10940 3651 c0 -5 9 -7 20 -4 11 3 20 7 20 9 0 2 -9 4 -20 4 -11 0
-20 -4 -20 -9z"/>
<path d="M11050 3645 c-26 -31 13 -82 44 -56 19 16 21 42 4 59 -16 16 -33 15
-48 -3z m45 -25 c0 -16 -6 -26 -18 -28 -19 -4 -32 20 -23 44 9 25 41 13 41
-16z"/>
<path d="M11171 3615 l2 -40 6 35 c4 22 12 35 21 35 9 0 17 -13 21 -35 l6 -35
4 35 c3 26 9 35 22 34 9 -1 17 2 17 6 0 4 -22 7 -50 7 l-50 -1 1 -41z"/>
<path d="M11303 3625 c2 -36 5 -40 30 -41 25 -1 27 1 26 40 l-2 41 -6 -35 c-4
-22 -12 -35 -21 -35 -9 0 -18 13 -22 35 l-6 35 1 -40z"/>
<path d="M11384 3648 c-4 -7 2 -18 14 -26 28 -19 28 -32 0 -33 -19 -1 -20 -2
-4 -6 10 -3 23 0 30 7 8 9 5 16 -11 30 -13 10 -23 21 -23 23 0 3 10 8 23 10
22 4 22 4 0 6 -12 0 -25 -4 -29 -11z"/>
<path d="M11453 3620 c0 -25 2 -35 4 -22 2 12 2 32 0 45 -2 12 -4 2 -4 -23z"/>
<path d="M11611 3654 c-1 -6 4 -25 10 -43 8 -24 8 -35 -1 -46 -9 -11 -9 -15
-1 -15 13 0 35 49 26 58 -3 3 -5 1 -6 -4 0 -5 -7 7 -14 26 -7 19 -14 30 -14
24z"/>
<path d="M11656 3645 c-9 -26 -7 -32 5 -12 6 10 9 21 6 23 -2 3 -7 -2 -11 -11z"/>
<path d="M11696 3651 c-3 -4 6 -6 19 -3 14 2 25 6 25 8 0 8 -39 4 -44 -5z"/>
<path d="M11800 3651 c0 -5 9 -7 20 -4 11 3 20 7 20 9 0 2 -9 4 -20 4 -11 0
-20 -4 -20 -9z"/>
<path d="M11863 3620 c0 -25 2 -35 4 -22 2 12 2 32 0 45 -2 12 -4 2 -4 -23z"/>
<path d="M11931 3620 l1 -45 8 35 c5 20 5 39 -1 45 -5 5 -9 -8 -8 -35z"/>
<path d="M11967 3653 c6 -4 13 -24 16 -43 4 -34 4 -33 3 4 -1 26 -6 41 -16 43
-10 3 -11 2 -3 -4z"/>
<path d="M12026 3651 c-4 -5 2 -7 13 -4 10 3 22 0 25 -6 5 -7 -4 -11 -23 -11
-34 0 -38 -7 -18 -34 8 -11 21 -16 33 -13 17 4 17 5 -2 6 -12 0 -24 8 -28 16
-4 11 2 15 24 15 32 0 37 9 18 28 -14 14 -35 16 -42 3z"/>
<path d="M11006 3635 c-11 -8 -15 -15 -9 -15 6 0 16 7 23 15 16 19 11 19 -14
0z"/>
<path d="M10953 3619 c9 -5 17 -14 17 -19 0 -5 -8 -11 -17 -13 -17 -4 -17 -5
0 -6 22 -1 34 28 16 40 -8 5 -18 9 -24 9 -5 -1 -2 -5 8 -11z"/>
<path d="M11681 3619 c-1 -21 24 -43 41 -36 8 3 6 6 -5 6 -10 1 -22 11 -27 24
-6 15 -9 17 -9 6z"/>
<path d="M11813 3619 c9 -5 17 -14 17 -19 0 -5 -8 -11 -17 -13 -17 -4 -17 -5
0 -6 22 -1 34 28 16 40 -8 5 -18 9 -24 9 -5 -1 -2 -5 8 -11z"/>
<path d="M6900 2970 c0 -5 12 -10 26 -10 l26 0 -31 -39 c-17 -21 -31 -44 -31
-50 0 -6 19 -11 45 -11 25 0 45 5 45 10 0 6 -13 10 -30 10 -37 0 -37 6 0 50
17 19 30 38 30 42 0 4 -18 8 -40 8 -22 0 -40 -4 -40 -10z"/>
<path d="M7463 2965 c-16 -29 -2 -99 20 -103 9 -2 17 1 17 7 0 6 -5 11 -11 11
-7 0 -10 12 -7 33 3 17 2 41 -2 52 -7 19 -7 19 -17 0z"/>
<path d="M7670 2970 c0 -5 5 -10 10 -10 6 0 10 5 10 10 0 6 -4 10 -10 10 -5 0
-10 -4 -10 -10z"/>
<path d="M7007 2944 c-14 -14 -7 -22 16 -17 19 3 18 2 -6 -12 -39 -22 -32 -50
11 -50 32 -1 33 0 30 40 -2 31 -7 41 -23 43 -12 2 -24 0 -28 -4z m33 -54 c0
-5 -7 -10 -15 -10 -8 0 -15 5 -15 10 0 6 7 10 15 10 8 0 15 -4 15 -10z"/>
<path d="M7092 2903 c1 -38 2 -41 5 -15 3 18 11 36 19 39 21 8 17 23 -6 23
-17 0 -20 -6 -18 -47z"/>
<path d="M7150 2929 c-17 -31 2 -72 32 -67 12 2 23 9 26 17 3 9 -1 11 -16 7
-11 -4 -23 -2 -27 4 -4 6 6 10 24 10 27 0 30 2 22 23 -11 30 -46 34 -61 6z
m43 -6 c-7 -2 -19 -2 -25 0 -7 3 -2 5 12 5 14 0 19 -2 13 -5z"/>
<path d="M7240 2900 c0 -27 -4 -50 -10 -50 -5 0 -10 -4 -10 -10 0 -5 7 -10 15
-10 12 0 15 13 15 60 0 33 -2 60 -5 60 -3 0 -5 -22 -5 -50z"/>
<path d="M7292 2941 c-8 -5 -12 -22 -10 -42 2 -26 8 -35 24 -37 11 -2 27 4 34
13 12 14 11 16 -12 10 -15 -4 -29 -2 -32 4 -5 7 4 11 23 11 32 0 41 16 19 38
-14 14 -28 15 -46 3z m35 -17 c-3 -3 -12 -4 -19 -1 -8 3 -5 6 6 6 11 1 17 -2
13 -5z"/>
<path d="M7377 2944 c-14 -15 -6 -35 18 -44 33 -13 32 -24 -1 -16 -19 5 -25 3
-22 -6 6 -18 36 -22 53 -8 21 18 19 27 -12 45 -25 14 -25 15 -4 9 17 -4 22 -2
19 7 -5 15 -40 24 -51 13z"/>
<path d="M7510 2904 c0 -24 5 -44 10 -44 6 0 10 14 10 30 0 18 6 33 15 36 23
9 18 22 -10 22 -23 0 -25 -4 -25 -44z"/>
<path d="M7583 2910 c2 -43 3 -45 35 -47 32 -1 32 -1 32 43 0 24 -4 44 -10 44
-5 0 -10 -16 -10 -36 0 -28 -3 -35 -17 -32 -11 2 -20 16 -25 38 -6 32 -6 31
-5 -10z"/>
<path d="M7668 2893 c-4 -65 -4 -68 11 -58 13 8 15 115 2 115 -5 0 -11 -26
-13 -57z"/>
</g>
</svg>
